<?xml version="1.0" encoding="UTF-8"?>
<svg version="1.1" xmlns="http://www.w3.org/2000/svg" width="500" height="500">
<path d="M0 0 C4.52804747 -0.07674657 8.58064313 -0.0749787 13 1 C16.83275809 1.89867559 20.37255673 2.12353603 24.30719948 2.12025452 C25.58674401 2.12162887 26.86628854 2.12300322 28.18460715 2.12441921 C29.60237056 2.12087541 31.02013375 2.11724088 32.43789673 2.11352539 C33.94562604 2.11324538 35.45335549 2.11340835 36.96108472 2.11397648 C41.1055823 2.11427224 45.25005128 2.10833408 49.39454222 2.10140657 C53.86353616 2.09503712 58.33253115 2.09446381 62.80152893 2.0932312 C70.54551274 2.09034337 78.28948702 2.0839023 86.03346634 2.07516479 C97.233258 2.06262066 108.43304613 2.05653641 119.63284366 2.05223143 C137.80764076 2.04516264 155.98243342 2.03435882 174.15722656 2.02050781 C175.78916649 2.01926609 175.78916649 2.01926609 177.4540749 2.01799929 C185.17771668 2.01209816 192.90135835 2.00606398 200.625 2 C209.4511718 1.99307123 218.27734365 1.98620414 227.10351562 1.97949219 C228.19075918 1.97866406 229.27800274 1.97783593 230.39819308 1.97698271 C248.50681328 1.96331131 266.61543356 1.95354466 284.72405756 1.94658184 C295.90032947 1.94209358 307.07658821 1.93403901 318.25285397 1.92143703 C325.90491411 1.91303036 333.5569712 1.90812496 341.20903565 1.90601182 C345.62858113 1.90466286 350.04810958 1.90162901 354.46764946 1.89425278 C358.50893709 1.88753309 362.55020001 1.88536155 366.5914927 1.88688838 C368.05774093 1.88661566 369.52399 1.88462549 370.99023326 1.8807956 C372.97497697 1.87584968 374.95973408 1.87760495 376.9444828 1.87974548 C378.04941664 1.87882369 379.15435048 1.8779019 380.29276717 1.87695217 C383 2 383 2 386 3 C386 42.6 386 82.2 386 123 C348.82888539 123.12858782 311.65776821 123.2562959 274.48664438 123.38218227 C270.05416588 123.39719467 265.62168742 123.41221723 261.18920898 123.42724609 C259.86609554 123.43173202 259.86609554 123.43173202 258.51625254 123.43630856 C244.41087112 123.48415584 230.30549263 123.53281805 216.20011512 123.58180541 C201.62375491 123.63240942 187.04739172 123.68208225 172.47102565 123.73096704 C164.32713043 123.75830394 156.18323693 123.78601815 148.03934669 123.81480408 C128.5465581 123.88352014 109.05377057 123.94346438 89.56091356 123.98909378 C86.44751367 123.99642783 83.33411559 124.00427261 80.22071791 124.01249313 C71.35798918 124.03577166 62.49527238 124.05555744 53.63251891 124.06649265 C49.83336474 124.07121269 46.0342308 124.07744284 42.23508799 124.08801365 C38.06135745 124.09950568 33.88765858 124.10279549 29.71391296 124.10534668 C28.49724186 124.10981151 27.28057075 124.11427633 26.02703083 124.11887646 C5.10758529 124.10758529 5.10758529 124.10758529 3 122 C2.90212222 120.51173398 2.8736822 119.01883994 2.87301636 117.52735901 C2.87019653 116.56124695 2.86737671 115.59513489 2.86447144 114.5997467 C2.86649567 113.53114914 2.8685199 112.46255157 2.87060547 111.36157227 C2.86885315 110.24297821 2.86710083 109.12438416 2.86529541 107.97189331 C2.86087386 104.2533821 2.86381615 100.53491799 2.8671875 96.81640625 C2.8665145 94.24429821 2.86554451 91.67219022 2.86428833 89.1000824 C2.86281091 83.70042255 2.86487253 78.30078058 2.86962891 72.90112305 C2.87506877 66.65328932 2.87331086 60.40548823 2.8678025 54.1576553 C2.8627221 48.15568118 2.86325439 42.15372307 2.86618423 36.15174675 C2.86685331 33.59397311 2.86602576 31.03619865 2.86370468 28.47842598 C2.86117646 24.90820202 2.86502133 21.33804148 2.87060547 17.76782227 C2.86858124 16.70124893 2.86655701 15.6346756 2.86447144 14.53578186 C2.86729126 13.56684998 2.87011108 12.59791809 2.87301636 11.59962463 C2.87339338 10.75471749 2.87377041 9.90981035 2.87415886 9.03929996 C3 7 3 7 4 5 C2.35 5 0.7 5 -1 5 C-0.67 3.35 -0.34 1.7 0 0 Z " fill="#DBEAF1" transform="translate(66,187)"/>
<path d="M0 0 C4.52804747 -0.07674657 8.58064313 -0.0749787 13 1 C17.21073678 2.0236768 21.27736975 2.13815116 25.58662415 2.12025452 C26.3422699 2.12110894 27.09791566 2.12196337 27.87645978 2.12284368 C30.4037481 2.12448834 32.93096977 2.11899372 35.45825195 2.11352539 C37.27177428 2.11324327 39.08529671 2.11340173 40.89881897 2.1139679 C45.81986355 2.11425491 50.74088378 2.10837354 55.66192269 2.10139394 C60.80555361 2.09514457 65.94918508 2.09455535 71.09281921 2.09336853 C80.83204909 2.09025989 90.57126776 2.08205278 100.31049269 2.07201904 C111.39866702 2.06084341 122.48684188 2.05534379 133.57502043 2.05032361 C156.38335318 2.0398698 179.19167596 2.02227938 202 2 C202 2.33 202 2.66 202 3 C178.9 3 155.8 3 132 3 C132 42.6 132 82.2 132 123 C77.046029 124.16923343 77.046029 124.16923343 50.4864502 124.12695312 C47.50424054 124.12427384 44.5220588 124.129237 41.5398531 124.13394356 C38.59622168 124.13756987 35.65260676 124.13640421 32.70897484 124.13381577 C30.69736558 124.13285275 28.68575561 124.13581405 26.67414856 124.13894653 C5.08356269 124.08356269 5.08356269 124.08356269 3 122 C2.90212222 120.51173398 2.8736822 119.01883994 2.87301636 117.52735901 C2.87019653 116.56124695 2.86737671 115.59513489 2.86447144 114.5997467 C2.86649567 113.53114914 2.8685199 112.46255157 2.87060547 111.36157227 C2.86885315 110.24297821 2.86710083 109.12438416 2.86529541 107.97189331 C2.86087386 104.2533821 2.86381615 100.53491799 2.8671875 96.81640625 C2.8665145 94.24429821 2.86554451 91.67219022 2.86428833 89.1000824 C2.86281091 83.70042255 2.86487253 78.30078058 2.86962891 72.90112305 C2.87506877 66.65328932 2.87331086 60.40548823 2.8678025 54.1576553 C2.8627221 48.15568118 2.86325439 42.15372307 2.86618423 36.15174675 C2.86685331 33.59397311 2.86602576 31.03619865 2.86370468 28.47842598 C2.86117646 24.90820202 2.86502133 21.33804148 2.87060547 17.76782227 C2.86858124 16.70124893 2.86655701 15.6346756 2.86447144 14.53578186 C2.86729126 13.56684998 2.87011108 12.59791809 2.87301636 11.59962463 C2.87339338 10.75471749 2.87377041 9.90981035 2.87415886 9.03929996 C3 7 3 7 4 5 C2.35 5 0.7 5 -1 5 C-0.67 3.35 -0.34 1.7 0 0 Z " fill="#DBEAF1" transform="translate(66,187)"/>
<path d="M0 0 C26.73 0 53.46 0 81 0 C81 35.31 81 70.62 81 107 C138.09 107 195.18 107 254 107 C254 111.29 254 115.58 254 120 C170.18 120 86.36 120 0 120 C0 80.4 0 40.8 0 0 Z " fill="#1C374E" transform="translate(198,190)"/>
<path d="M0 0 C1.5 1.375 1.5 1.375 3 3 C3 3.66 3 4.32 3 5 C3.40605469 4.50113281 3.81210938 4.00226563 4.23046875 3.48828125 C6 2 6 2 8.05078125 1.85546875 C12.56039698 2.51750215 16.71838218 3.35322392 21 5 C21 5.99 21 6.98 21 8 C20.34 8 19.68 8 19 8 C19.495 9.485 19.495 9.485 20 11 C20.66 10.34 21.32 9.68 22 9 C24.9093558 8.85482256 27.719946 8.81369204 30.625 8.875 C31.82769531 8.88853516 31.82769531 8.88853516 33.0546875 8.90234375 C35.03658523 8.92593777 37.01832981 8.96180935 39 9 C38.67 9.99 38.34 10.98 38 12 C37.34 12 36.68 12 36 12 C36 13.98 36 15.96 36 18 C36.721875 18.020625 37.44375 18.04125 38.1875 18.0625 C42.91757161 19.63919054 44.75355837 23.61140071 46.98046875 27.87890625 C48.50372321 31.19001807 49 33.29705256 49 37 C47.02 36.34 45.04 35.68 43 35 C43 36.32 43 37.64 43 39 C40 38 40 38 38.8125 35.9375 C38.4103125 34.9784375 38.4103125 34.9784375 38 34 C36.58071739 36.64932753 35.68136547 39.07986225 35 42 C34.505 42.99 34.505 42.99 34 44 C33.84530633 46.17674783 33.74997894 48.3578348 33.68359375 50.5390625 C33.64169922 51.84101563 33.59980469 53.14296875 33.55664062 54.484375 C33.51682701 55.86458045 33.47711478 57.24478883 33.4375 58.625 C33.39430593 60.01303415 33.35069135 61.40105528 33.30664062 62.7890625 C33.20028 66.19260256 33.09825286 69.59621778 33 73 C30.36 73.33 27.72 73.66 25 74 C25 73.01 25 72.02 25 71 C24.01 71.495 24.01 71.495 23 72 C22.34444881 74.52733235 22.34444881 74.52733235 22 77 C22.886875 76.67 23.77375 76.34 24.6875 76 C27.70923347 75.08777857 29.88373706 74.81669042 33 75 C33.309375 76.2684375 33.309375 76.2684375 33.625 77.5625 C34.9131123 80.78278075 35.81224849 82.02656564 38.125 84.4375 C40.58773666 87.15978979 40.98672814 87.92036882 41.625 91.75 C41 95 41 95 39.41090393 96.67886353 C36.10186217 98.49216505 33.56724426 98.38125022 29.80053711 98.38818359 C29.08300766 98.39344055 28.36547821 98.39869751 27.62620544 98.40411377 C25.25969536 98.41729406 22.8938604 98.40858404 20.52734375 98.3984375 C18.88114798 98.40045859 17.23495308 98.40337032 15.58876038 98.40713501 C12.14136212 98.41155549 8.69419727 98.40513549 5.24682617 98.39111328 C0.82581257 98.37400796 -3.5946552 98.38387259 -8.01564884 98.40183067 C-11.41369245 98.4126646 -14.81160636 98.40922424 -18.20965385 98.4014473 C-19.83996075 98.39944489 -21.4702794 98.40190598 -23.10057259 98.40888596 C-25.37734367 98.41649569 -27.65322679 98.40490464 -29.92993164 98.38818359 C-31.22580704 98.38579681 -32.52168243 98.38341003 -33.85682678 98.38095093 C-37 98 -37 98 -38.90281677 96.67495728 C-40.90769473 93.61431541 -40.58321825 91.55763129 -40 88 C-38.43572998 86.22320557 -38.43572998 86.22320557 -36.51074219 84.37597656 C-32.32813451 79.75854991 -32.03726819 76.23291789 -32.203125 70.171875 C-32.19794861 69.26044739 -32.19277222 68.34901978 -32.18743896 67.40997314 C-32.1756162 64.52218666 -32.20994954 61.63749351 -32.25 58.75 C-32.26876982 55.84885992 -32.2774987 52.9483724 -32.26971436 50.04718018 C-32.26704007 48.24858151 -32.28073168 46.44986494 -32.31280518 44.65155029 C-32.3335097 38.62623518 -32.3335097 38.62623518 -30.63842773 35.44335938 C-28.33960359 33.41822924 -26.82523785 33.59349414 -23.8125 33.75 C-22.91144531 33.78609375 -22.01039062 33.8221875 -21.08203125 33.859375 C-20.39496094 33.90578125 -19.70789063 33.9521875 -19 34 C-18.67 33.01 -18.34 32.02 -18 31 C-17.34 31 -16.68 31 -16 31 C-16.33 33.31 -16.66 35.62 -17 38 C-16.34 38 -15.68 38 -15 38 C-14.67 37.01 -14.34 36.02 -14 35 C-13.01 35 -12.02 35 -11 35 C-11 34.01 -11 33.02 -11 32 C-11.66 32 -12.32 32 -13 32 C-12.34 30.68 -11.68 29.36 -11 28 C-10.34 28 -9.68 28 -9 28 C-8.34 26.68 -7.68 25.36 -7 24 C-5.35 24.33 -3.7 24.66 -2 25 C-1.34 23.35 -0.68 21.7 0 20 C0.66 20 1.32 20 2 20 C2 19.34 2 18.68 2 18 C2.66 17.34 3.32 16.68 4 16 C3.34 15.34 2.68 14.68 2 14 C-1.59679066 14.32326553 -1.59679066 14.32326553 -5 15 C-4.67 13.02 -4.34 11.04 -4 9 C-4.99 8.67 -5.98 8.34 -7 8 C-7 7.34 -7 6.68 -7 6 C-6.401875 5.938125 -5.80375 5.87625 -5.1875 5.8125 C-2.12856542 4.6763243 -1.44958901 2.82669858 0 0 Z " fill="#D7E7F0" transform="translate(133,199)"/>
<path d="M0 0 C0.66 0 1.32 0 2 0 C1.67 2.97 1.34 5.94 1 9 C-1.31 9 -3.62 9 -6 9 C-6 21.54 -6 34.08 -6 47 C8.19 47 22.38 47 37 47 C37 44.69 37 42.38 37 40 C37.33 39.01 37.66 38.02 38 37 C36.02 36.01 34.04 35.02 32 34 C32.04125 34.78375 32.0825 35.5675 32.125 36.375 C32 39 32 39 30 41 C27.25514407 41.14507695 24.61519457 41.18652423 21.875 41.125 C21.12089844 41.11597656 20.36679688 41.10695313 19.58984375 41.09765625 C17.72642746 41.0740687 15.86317407 41.03819719 14 41 C14 40.34 14 39.68 14 39 C18.62 38.67 23.24 38.34 28 38 C28.33 35.69 28.66 33.38 29 31 C28.21625 30.896875 27.4325 30.79375 26.625 30.6875 C24 30 24 30 22 27 C22.375 24.8125 22.375 24.8125 23 23 C31.17542171 20.79892493 35.76347765 23.97057278 43 28 C43 21.73 43 15.46 43 9 C40.69 9 38.38 9 36 9 C35.505 4.545 35.505 4.545 35 0 C35.99 0.33 36.98 0.66 38 1 C38 1.66 38 2.32 38 3 C38.68707031 2.94199219 39.37414062 2.88398438 40.08203125 2.82421875 C40.98308594 2.77910156 41.88414062 2.73398438 42.8125 2.6875 C43.70582031 2.62949219 44.59914063 2.57148438 45.51953125 2.51171875 C48 3 48 3 49.63671875 5.03515625 C51.33614307 8.73103894 51.37884681 11.94408338 51.29296875 15.92578125 C51.28872391 16.67337204 51.28447906 17.42096283 51.28010559 18.19120789 C51.26339056 20.56534732 51.22575347 22.93861967 51.1875 25.3125 C51.17244381 26.92772206 51.15875703 28.54295751 51.14648438 30.15820312 C51.1135108 34.10579988 51.06177969 38.05275322 51 42 C48.36 42.33 45.72 42.66 43 43 C43 42.01 43 41.02 43 40 C42.01 40.495 42.01 40.495 41 41 C40.34444881 43.52733235 40.34444881 43.52733235 40 46 C40.886875 45.67 41.77375 45.34 42.6875 45 C45.70923347 44.08777857 47.88373706 43.81669042 51 44 C51.309375 45.2684375 51.309375 45.2684375 51.625 46.5625 C52.9131123 49.78278075 53.81224849 51.02656564 56.125 53.4375 C58.58773666 56.15978979 58.98672814 56.92036882 59.625 60.75 C59 64 59 64 57.41090393 65.67886353 C54.10186217 67.49216505 51.56724426 67.38125022 47.80053711 67.38818359 C47.08300766 67.39344055 46.36547821 67.39869751 45.62620544 67.40411377 C43.25969536 67.41729406 40.8938604 67.40858404 38.52734375 67.3984375 C36.88114798 67.40045859 35.23495308 67.40337032 33.58876038 67.40713501 C30.14136212 67.41155549 26.69419727 67.40513549 23.24682617 67.39111328 C18.82581257 67.37400796 14.4053448 67.38387259 9.98435116 67.40183067 C6.58630755 67.4126646 3.18839364 67.40922424 -0.20965385 67.4014473 C-1.83996075 67.39944489 -3.4702794 67.40190598 -5.10057259 67.40888596 C-7.37734367 67.41649569 -9.65322679 67.40490464 -11.92993164 67.38818359 C-13.22580704 67.38579681 -14.52168243 67.38341003 -15.85682678 67.38095093 C-19 67 -19 67 -20.90281677 65.67495728 C-22.90769473 62.61431541 -22.58321825 60.55763129 -22 57 C-20.43572998 55.22320557 -20.43572998 55.22320557 -18.51074219 53.37597656 C-14.32813451 48.75854991 -14.03726819 45.23291789 -14.203125 39.171875 C-14.19794861 38.26044739 -14.19277222 37.34901978 -14.18743896 36.40997314 C-14.1756162 33.52218666 -14.20994954 30.63749351 -14.25 27.75 C-14.26876982 24.84885992 -14.2774987 21.9483724 -14.26971436 19.04718018 C-14.26704007 17.24858151 -14.28073168 15.44986494 -14.31280518 13.65155029 C-14.3335097 7.62623518 -14.3335097 7.62623518 -12.63842773 4.44335938 C-10.33960359 2.41822924 -8.82523785 2.59349414 -5.8125 2.75 C-4.91144531 2.78609375 -4.01039062 2.8221875 -3.08203125 2.859375 C-2.39496094 2.90578125 -1.70789063 2.9521875 -1 3 C-0.67 2.01 -0.34 1.02 0 0 Z " fill="#263E53" transform="translate(115,230)"/>
<path d="M0 0 C36.07142857 0 36.07142857 0 43.875 4.75 C47.70900768 8.80953755 49.16181659 13.05680674 49.375 18.5625 C49.17820359 23.39221189 48.00492889 26.92933573 44.5703125 30.4765625 C41.93013239 32.82776767 40.61260729 34 37 34 C37 34.66 37 35.32 37 36 C37.86625 36.2784375 37.86625 36.2784375 38.75 36.5625 C42.1481456 38.73353747 43.67909151 41.28605549 45 45 C45.63742307 48.76121827 46.07815395 52.51701376 46.49609375 56.30859375 C47.11715386 60.85822015 48.3514588 64.72877961 50 69 C46.7 69 43.4 69 40 69 C38.21451589 63.64354767 36.87226407 58.89545027 36.5625 53.25 C36.22612304 48.49362975 35.26750385 45.64093286 32 42 C29.03489732 40.18361873 26.68677881 39.71872226 23.234375 39.5859375 C22.43225586 39.55032715 21.63013672 39.5147168 20.80371094 39.47802734 C19.29212402 39.42702881 19.29212402 39.42702881 17.75 39.375 C14.5325 39.25125 11.315 39.1275 8 39 C8 48.9 8 58.8 8 69 C5.36 69 2.72 69 0 69 C0 46.23 0 23.46 0 0 Z " fill="#1F3950" transform="translate(344,217)"/>
<path d="M0 0 C0.66 0 1.32 0 2 0 C2 21.78 2 43.56 2 66 C1.01 65.67 0.02 65.34 -1 65 C-1 63.68 -1 62.36 -1 61 C-13.54 61 -26.08 61 -39 61 C-39 53.08 -39 45.16 -39 37 C-28.11 37 -17.22 37 -6 37 C-6 34.69 -6 32.38 -6 30 C-16.89 30 -27.78 30 -39 30 C-39 22.08 -39 14.16 -39 6 C-26.79 6 -14.58 6 -2 6 C-2 4.68 -2 3.36 -2 2 C-1.34 2 -0.68 2 0 2 C0 1.34 0 0.68 0 0 Z " fill="#DBEBF3" transform="translate(342,218)"/>
<path d="M0 0 C36.91489362 0 36.91489362 0 44 6.9375 C47.92103484 12.9415846 48.86963916 17.86895886 48 25 C46.21266561 30.84945802 43.0930873 34.57196047 38 38 C31.35382799 41.09956004 25.7628345 41.37189941 18.5 41.1875 C15.035 41.125625 11.57 41.06375 8 41 C8 50.24 8 59.48 8 69 C5.36 69 2.72 69 0 69 C0 46.23 0 23.46 0 0 Z " fill="#1C364C" transform="translate(397,217)"/>
<path d="M0 0 C1.09570312 0.00902344 2.19140625 0.01804688 3.3203125 0.02734375 C4.16335937 0.03894531 5.00640625 0.05054688 5.875 0.0625 C5.875 2.3725 5.875 4.6825 5.875 7.0625 C4.80958984 7.24425781 4.80958984 7.24425781 3.72265625 7.4296875 C2.80355469 7.59726563 1.88445312 7.76484375 0.9375 7.9375 C-0.43728516 8.18113281 -0.43728516 8.18113281 -1.83984375 8.4296875 C-2.59394531 8.63851562 -3.34804687 8.84734375 -4.125 9.0625 C-5.40946919 11.63143838 -5.45477144 13.82826337 -5.6875 16.6875 C-5.831875 18.46125 -5.97625 20.235 -6.125 22.0625 C-1.835 22.0625 2.455 22.0625 6.875 22.0625 C10.62901199 31.15595622 13.87289895 40.40631264 17.125 49.6875 C19.0225 55.09125 20.92 60.495 22.875 66.0625 C30.3 44.2825 30.3 44.2825 37.875 22.0625 C41.175 22.0625 44.475 22.0625 47.875 22.0625 C44.51847453 32.34438876 40.68073723 42.43754007 36.8605957 52.55444336 C35.99645545 54.84814496 35.13641466 57.14339527 34.28051758 59.44018555 C33.03370654 62.78537597 31.77409006 66.12549889 30.51171875 69.46484375 C30.13649582 70.47868637 29.76127289 71.49252899 29.37467957 72.53709412 C22.62370822 90.24573543 22.62370822 90.24573543 14.875 95.0625 C11.99288698 96.02320434 10.17649956 96.16831883 7.1875 96.125 C6.37925781 96.11597656 5.57101563 96.10695313 4.73828125 96.09765625 C4.12339844 96.08605469 3.50851563 96.07445312 2.875 96.0625 C2.875 93.7525 2.875 91.4425 2.875 89.0625 C3.47828125 88.97613281 4.0815625 88.88976562 4.703125 88.80078125 C8.70838584 88.09663055 11.26337157 87.59767488 14.375 84.875 C16.53834167 80.81873437 17.38010272 77.28481373 16.33981323 72.70782471 C15.46148423 69.95976009 14.48734799 67.26807929 13.46484375 64.5703125 C13.10032608 63.58376678 12.73580841 62.59722107 12.36024475 61.58078003 C11.58726066 59.50522734 10.80594722 57.43275997 10.0168457 55.36328125 C8.81247156 52.18742501 7.65233144 48.99763076 6.49414062 45.8046875 C5.73700678 43.78807244 4.97732792 41.77241068 4.21484375 39.7578125 C3.87082016 38.8006131 3.52679657 37.8434137 3.17234802 36.85720825 C2.65765709 35.53981155 2.65765709 35.53981155 2.13256836 34.19580078 C1.84087265 33.41971466 1.54917694 32.64362854 1.24864197 31.84402466 C-0.37420465 29.32128735 -0.37420465 29.32128735 -6.125 29.0625 C-6.125 44.2425 -6.125 59.4225 -6.125 75.0625 C-8.765 75.0625 -11.405 75.0625 -14.125 75.0625 C-14.125 59.8825 -14.125 44.7025 -14.125 29.0625 C-16.105 29.0625 -18.085 29.0625 -20.125 29.0625 C-20.125 26.7525 -20.125 24.4425 -20.125 22.0625 C-18.475 22.0625 -16.825 22.0625 -15.125 22.0625 C-15.15980469 21.42183594 -15.19460937 20.78117187 -15.23046875 20.12109375 C-15.45206545 13.04055173 -14.86076761 8.21277786 -10.0625 2.6875 C-6.64054935 -0.18252313 -4.40359465 -0.04684675 0 0 Z " fill="#A5C7DB" transform="translate(225.125,210.9375)"/>
<path d="M0 0 C14.52 0 29.04 0 44 0 C44 2.31 44 4.62 44 7 C32.12 7 20.24 7 8 7 C8 14.92 8 22.84 8 31 C18.89 31 29.78 31 41 31 C41 33.31 41 35.62 41 38 C30.11 38 19.22 38 8 38 C8 45.92 8 53.84 8 62 C20.21 62 32.42 62 45 62 C45 64.31 45 66.62 45 69 C30.15 69 15.3 69 0 69 C0 46.23 0 23.46 0 0 Z " fill="#1A354B" transform="translate(295,217)"/>
<path d="M0 0 C1.5 1.375 1.5 1.375 3 3 C3 3.66 3 4.32 3 5 C3.40605469 4.50113281 3.81210938 4.00226563 4.23046875 3.48828125 C6 2 6 2 8.05078125 1.85546875 C12.56039698 2.51750215 16.71838218 3.35322392 21 5 C21 5.99 21 6.98 21 8 C20.34 8 19.68 8 19 8 C19.495 9.485 19.495 9.485 20 11 C20.66 10.34 21.32 9.68 22 9 C24.9093558 8.85482256 27.719946 8.81369204 30.625 8.875 C31.42679688 8.88402344 32.22859375 8.89304688 33.0546875 8.90234375 C35.03658523 8.92593777 37.01832981 8.96180935 39 9 C38.67 9.99 38.34 10.98 38 12 C37.34 12 36.68 12 36 12 C36 13.98 36 15.96 36 18 C36.721875 18.020625 37.44375 18.04125 38.1875 18.0625 C42.91757161 19.63919054 44.75355837 23.61140071 46.98046875 27.87890625 C48.50372321 31.19001807 49 33.29705256 49 37 C48.34 37 47.68 37 47 37 C46.65388672 35.93458984 46.65388672 35.93458984 46.30078125 34.84765625 C45.97464844 33.92855469 45.64851563 33.00945312 45.3125 32.0625 C44.99925781 31.14597656 44.68601563 30.22945312 44.36328125 29.28515625 C43.18742244 26.73467787 43.18742244 26.73467787 40.35546875 26.18359375 C39.18951172 26.09271484 39.18951172 26.09271484 38 26 C37.505 22.535 37.505 22.535 37 19 C36.0409375 19.99 36.0409375 19.99 35.0625 21 C31.48781246 23.33448982 29.35325701 23.69925404 25.16015625 23.53125 C21.28575145 22.57841265 20.05353049 20.31214596 18 17 C18 16.34 18 15.68 18 15 C17.34 14.67 16.68 14.34 16 14 C16.66 14 17.32 14 18 14 C17.01 13.01 16.02 12.02 15 11 C15 11.66 15 12.32 15 13 C14.01 13.495 14.01 13.495 13 14 C13.33 14.99 13.66 15.98 14 17 C12.35 17.33 10.7 17.66 9 18 C9.33 21.3 9.66 24.6 10 28 C10.99 28.33 11.98 28.66 13 29 C12.67 30.98 12.34 32.96 12 35 C12.99 35 13.98 35 15 35 C15 36.32 15 37.64 15 39 C14.01 39 13.02 39 12 39 C12.350625 39.78375 12.70125 40.5675 13.0625 41.375 C13.5265625 42.674375 13.5265625 42.674375 14 44 C13.67 44.66 13.34 45.32 13 46 C11.68 46 10.36 46 9 46 C9.33 46.99 9.66 47.98 10 49 C8.68 49.66 7.36 50.32 6 51 C5.01 50.34 4.02 49.68 3 49 C2.67 50.32 2.34 51.64 2 53 C0.68 52.67 -0.64 52.34 -2 52 C-2 51.01 -2 50.02 -2 49 C-3.65 49.66 -5.3 50.32 -7 51 C-7.66 50.01 -8.32 49.02 -9 48 C-8.67 47.34 -8.34 46.68 -8 46 C-9.32 46 -10.64 46 -12 46 C-12.93423645 42.98968256 -13.04449911 42.13349732 -12 39 C-12.66 39 -13.32 39 -14 39 C-14 37.68 -14 36.36 -14 35 C-13.01 35 -12.02 35 -11 35 C-11 34.01 -11 33.02 -11 32 C-11.66 32 -12.32 32 -13 32 C-12.34 30.68 -11.68 29.36 -11 28 C-10.34 28 -9.68 28 -9 28 C-8.34 26.68 -7.68 25.36 -7 24 C-5.35 24.33 -3.7 24.66 -2 25 C-1.34 23.35 -0.68 21.7 0 20 C0.66 20 1.32 20 2 20 C2 19.34 2 18.68 2 18 C2.66 17.34 3.32 16.68 4 16 C3.34 15.34 2.68 14.68 2 14 C-1.59679066 14.32326553 -1.59679066 14.32326553 -5 15 C-4.67 13.02 -4.34 11.04 -4 9 C-4.99 8.67 -5.98 8.34 -7 8 C-7 7.34 -7 6.68 -7 6 C-6.401875 5.938125 -5.80375 5.87625 -5.1875 5.8125 C-2.12856542 4.6763243 -1.44958901 2.82669858 0 0 Z M36 27 C37.32 27 38.64 27 40 27 C40 28.65 40 30.3 40 32 C39.34 32 38.68 32 38 32 C37.34 30.35 36.68 28.7 36 27 Z " fill="#253F50" transform="translate(133,199)"/>
<path d="M0 0 C1.24171463 -0.02551941 2.48342926 -0.05103882 3.76277161 -0.07733154 C5.12008034 -0.08344751 6.47739742 -0.08790268 7.8347168 -0.09082031 C9.22853646 -0.10367733 10.62235071 -0.11713414 12.01615906 -0.13116455 C14.93912253 -0.15511812 17.86161327 -0.16252588 20.78466797 -0.16015625 C24.52155085 -0.15975031 28.25538324 -0.21428536 31.99154377 -0.28324509 C34.87167622 -0.32784528 37.75107887 -0.33582968 40.63152122 -0.33371735 C42.00825683 -0.33842283 43.38501352 -0.35603537 44.76140785 -0.38704681 C46.69209909 -0.42646463 48.62368732 -0.40961832 50.5546875 -0.390625 C51.65150345 -0.39632507 52.7483194 -0.40202515 53.87837219 -0.40789795 C56.97143555 0.58105469 56.97143555 0.58105469 62.97143555 8.58105469 C55.71143555 8.58105469 48.45143555 8.58105469 40.97143555 8.58105469 C40.97143555 9.24105469 40.97143555 9.90105469 40.97143555 10.58105469 C48.23143555 10.58105469 55.49143555 10.58105469 62.97143555 10.58105469 C62.64143555 11.90105469 62.31143555 13.22105469 61.97143555 14.58105469 C61.19429199 14.57581787 60.41714844 14.57058105 59.61645508 14.56518555 C56.10979006 14.54445313 52.60313792 14.53140648 49.09643555 14.51855469 C47.87311523 14.51017578 46.64979492 14.50179688 45.3894043 14.49316406 C44.22280273 14.48994141 43.05620117 14.48671875 41.85424805 14.48339844 C40.77546387 14.47816162 39.69667969 14.4729248 38.58520508 14.4675293 C35.98911368 14.40222363 35.98911368 14.40222363 33.97143555 15.58105469 C33.97143555 14.92105469 33.97143555 14.26105469 33.97143555 13.58105469 C31.01304199 13.5541602 28.05489128 13.53426727 25.09643555 13.51855469 C24.25467773 13.51017578 23.41291992 13.50179688 22.5456543 13.49316406 C21.73999023 13.48994141 20.93432617 13.48671875 20.10424805 13.48339844 C19.36062012 13.47816162 18.61699219 13.4729248 17.85083008 13.4675293 C15.88010987 13.46318833 15.88010987 13.46318833 13.97143555 14.58105469 C12.01015042 14.59735904 10.04810674 14.54556945 8.08862305 14.45996094 C6.92202148 14.41162109 5.75541992 14.36328125 4.5534668 14.31347656 C2.71848633 14.22936523 2.71848633 14.22936523 0.84643555 14.14355469 C-0.38461914 14.09134766 -1.61567383 14.03914063 -2.8840332 13.98535156 C-5.93245034 13.85538029 -8.98056395 13.72040449 -12.02856445 13.58105469 C-12.35856445 12.59105469 -12.68856445 11.60105469 -13.02856445 10.58105469 C-6.09856445 10.58105469 0.83143555 10.58105469 7.97143555 10.58105469 C7.97143555 9.92105469 7.97143555 9.26105469 7.97143555 8.58105469 C1.70143555 8.58105469 -4.56856445 8.58105469 -11.02856445 8.58105469 C-6.7853023 0.09453038 -6.7853023 0.09453038 0 0 Z " fill="#29435B" transform="translate(108.028564453125,279.4189453125)"/>
<path d="M0 0 C3.34125 -0.061875 6.6825 -0.12375 10.125 -0.1875 C11.68758545 -0.22846802 11.68758545 -0.22846802 13.28173828 -0.27026367 C19.60985157 -0.32686249 24.13483539 0.18923725 28.8515625 4.81640625 C30.34278684 7.65176138 30.39916244 9.74403127 30.375 12.9375 C30.38273437 13.95714844 30.39046875 14.97679687 30.3984375 16.02734375 C29.92778736 19.53876294 29.26535523 21.2677042 27 24 C21.26383521 27.40331013 16.10344853 27.36971559 9.5625 27.1875 C4.8290625 27.0946875 4.8290625 27.0946875 0 27 C0 18.09 0 9.18 0 0 Z " fill="#D7E7EF" transform="translate(405,224)"/>
<path d="M0 0 C3.50625 -0.0825 7.0125 -0.165 10.625 -0.25 C11.71893066 -0.28641602 12.81286133 -0.32283203 13.93994141 -0.36035156 C19.98966548 -0.42916149 23.39666491 -0.02233163 28 4 C30.64824509 6.64824509 30.35941487 8.05703275 30.4375 11.75 C30.3837894 15.81735727 30.26036819 18.50795549 27.625 21.6875 C24.02476517 24.85913545 22.46475126 25.1234327 17.7734375 25.09765625 C16.84450684 25.09515869 15.91557617 25.09266113 14.95849609 25.09008789 C13.77594238 25.08098389 12.59338867 25.07187988 11.375 25.0625 C5.744375 25.0315625 5.744375 25.0315625 0 25 C0 16.75 0 8.5 0 0 Z " fill="#DAEAF2" transform="translate(353,224)"/>
<path d="M0 0 C1.98 0 3.96 0 6 0 C6 0.66 6 1.32 6 2 C4.35 2 2.7 2 1 2 C1.33 6.29 1.66 10.58 2 15 C2.66 14.67 3.32 14.34 4 14 C4 14.66 4 15.32 4 16 C4.66 16 5.32 16 6 16 C6.33 16.99 6.66 17.98 7 19 C7.33 18.34 7.66 17.68 8 17 C10.79173055 16.97309896 13.58320348 16.95320947 16.375 16.9375 C17.1690625 16.92912109 17.963125 16.92074219 18.78125 16.91210938 C24.7734375 16.88671875 24.7734375 16.88671875 27 18 C27 18.66 27 19.32 27 20 C22.38 20.33 17.76 20.66 13 21 C16.77285617 23.51523745 19.71074884 23.18947417 24.0625 23.0625 C31.75944584 22.87972292 31.75944584 22.87972292 34 24 C34 24.99 34 25.98 34 27 C29.71 27 25.42 27 21 27 C21 27.66 21 28.32 21 29 C25.29 29 29.58 29 34 29 C34 29.33 34 29.66 34 30 C29.38 30 24.76 30 20 30 C20 30.66 20 31.32 20 32 C25.28 31.67 30.56 31.34 36 31 C36.66 29.02 37.32 27.04 38 25 C39.98 25.66 41.96 26.32 44 27 C44 31 44 31 43 38 C28.81 38 14.62 38 0 38 C0 25.46 0 12.92 0 0 Z " fill="#DEECF1" transform="translate(109,239)"/>
<path d="M0 0 C1.9375 0.375 1.9375 0.375 4 1 C4.33 1.66 4.66 2.32 5 3 C6.32 2.67 7.64 2.34 9 2 C9.268125 2.639375 9.53625 3.27875 9.8125 3.9375 C10.88667752 6.33131686 10.88667752 6.33131686 14 7 C13.67 8.98 13.34 10.96 13 13 C13.99 13 14.98 13 16 13 C16 14.32 16 15.64 16 17 C15.01 17 14.02 17 13 17 C13.5259375 18.175625 13.5259375 18.175625 14.0625 19.375 C14.5265625 20.674375 14.5265625 20.674375 15 22 C14.67 22.66 14.34 23.32 14 24 C12.68 24 11.36 24 10 24 C10.33 24.99 10.66 25.98 11 27 C9.02 27.99 9.02 27.99 7 29 C6.01 28.34 5.02 27.68 4 27 C3.67 28.32 3.34 29.64 3 31 C1.68 30.67 0.36 30.34 -1 30 C-1 29.01 -1 28.02 -1 27 C-2.65 27.66 -4.3 28.32 -6 29 C-6.66 28.01 -7.32 27.02 -8 26 C-7.67 25.34 -7.34 24.68 -7 24 C-8.32 24 -9.64 24 -11 24 C-11.93423645 20.98968256 -12.04449911 20.13349732 -11 17 C-11.66 17 -12.32 17 -13 17 C-13 15.68 -13 14.36 -13 13 C-12.01 13 -11.02 13 -10 13 C-10 12.01 -10 11.02 -10 10 C-10.66 10 -11.32 10 -12 10 C-11.34 8.68 -10.68 7.36 -10 6 C-9.34 6 -8.68 6 -8 6 C-7.34 4.68 -6.68 3.36 -6 2 C-4.35 2.33 -2.7 2.66 -1 3 C-0.67 2.01 -0.34 1.02 0 0 Z " fill="#243E53" transform="translate(132,221)"/>
<path d="M0 0 C1.65 0.33 3.3 0.66 5 1 C5 3.31 5 5.62 5 8 C6.32 8 7.64 8 9 8 C9.33 9.32 9.66 10.64 10 12 C11.65 11.67 13.3 11.34 15 11 C15.33 11.99 15.66 12.98 16 14 C16.99 14 17.98 14 19 14 C19.33 13.01 19.66 12.02 20 11 C20.61875 11.20625 21.2375 11.4125 21.875 11.625 C22.926875 11.810625 22.926875 11.810625 24 12 C24.66 11.34 25.32 10.68 26 10 C26 9.34 26 8.68 26 8 C27.32 8 28.64 8 30 8 C30 6.35 30 4.7 30 3 C30.99 2.67 31.98 2.34 33 2 C33.495 2.495 33.495 2.495 34 3 C36.32817964 3.36760731 38.6618385 3.70241581 41 4 C41 6.97 41 9.94 41 13 C38.525 12.01 38.525 12.01 36 11 C36.20625 11.61875 36.4125 12.2375 36.625 12.875 C36.74875 13.57625 36.8725 14.2775 37 15 C36.34 15.66 35.68 16.32 35 17 C32.72265625 16.94140625 32.72265625 16.94140625 30.0625 16.5625 C26.75648563 16.09995013 25.22393668 15.92535444 22 17 C22.10613836 19.45224694 22.10613836 19.45224694 23 22 C25.47636012 23.37466625 25.47636012 23.37466625 28 24 C28 26.31 28 28.62 28 31 C23.38 31 18.76 31 14 31 C14 30.34 14 29.68 14 29 C18.29 29 22.58 29 27 29 C27 28.01 27 27.02 27 26 C25.74703125 26.02320313 24.4940625 26.04640625 23.203125 26.0703125 C21.5520893 26.08907427 19.90104715 26.10727403 18.25 26.125 C17.425 26.14175781 16.6 26.15851563 15.75 26.17578125 C14.95078125 26.18222656 14.1515625 26.18867188 13.328125 26.1953125 C12.5949707 26.20578613 11.86181641 26.21625977 11.10644531 26.22705078 C8.66007461 25.96335992 7.08395736 25.29409777 5 24 C4.67 23.34 4.34 22.68 4 22 C9.28 22 14.56 22 20 22 C20 21.34 20 20.68 20 20 C13.73 19.67 7.46 19.34 1 19 C0.67 19.99 0.34 20.98 0 22 C-0.103125 21.360625 -0.20625 20.72125 -0.3125 20.0625 C-0.6528125 19.0415625 -0.6528125 19.0415625 -1 18 C-1.99 17.67 -2.98 17.34 -4 17 C-4.66 17.99 -5.32 18.98 -6 20 C-6 14.72 -6 9.44 -6 4 C-4.35 4 -2.7 4 -1 4 C-0.67 2.68 -0.34 1.36 0 0 Z " fill="#EDF2F4" transform="translate(116,237)"/>
<path d="M0 0 C0.66 0 1.32 0 2 0 C1.01 2.97 0.02 5.94 -1 9 C0.65 9 2.3 9 4 9 C4.33 9.99 4.66 10.98 5 12 C5.66 12.33 6.32 12.66 7 13 C6.360625 14.0725 5.72125 15.145 5.0625 16.25 C3.59398727 18.80822182 2.47145458 21.05340886 2 24 C3.32 24.33 4.64 24.66 6 25 C6.33 23.68 6.66 22.36 7 21 C7 34.53 7 48.06 7 62 C6.67 62 6.34 62 6 62 C5.505 48.14 5.505 48.14 5 34 C3.02 35.32 1.04 36.64 -1 38 C-4.2109375 37.953125 -4.2109375 37.953125 -7.375 37.25 C-8.96441406 36.91742188 -8.96441406 36.91742188 -10.5859375 36.578125 C-11.78089844 36.29195312 -11.78089844 36.29195312 -13 36 C-12.34 34.68 -11.68 33.36 -11 32 C-11.66 31.34 -12.32 30.68 -13 30 C-12.94140625 27.72265625 -12.94140625 27.72265625 -12.5625 25.0625 C-12.09995013 21.75648563 -11.92535444 20.22393668 -13 17 C-12.01 16.67 -11.02 16.34 -10 16 C-10 15.34 -10 14.68 -10 14 C-9.34 14 -8.68 14 -8 14 C-7.690625 12.7625 -7.690625 12.7625 -7.375 11.5 C-5.64979213 7.10856178 -3.22530939 3.45318451 0 0 Z " fill="#C0D3DE" transform="translate(94,217)"/>
<path d="M0 0 C0.99 0.33 1.98 0.66 3 1 C3 1.66 3 2.32 3 3 C3.68707031 2.94199219 4.37414062 2.88398438 5.08203125 2.82421875 C5.98308594 2.77910156 6.88414062 2.73398438 7.8125 2.6875 C8.70582031 2.62949219 9.59914062 2.57148438 10.51953125 2.51171875 C13 3 13 3 14.63671875 5.03515625 C16.33614307 8.73103894 16.37884681 11.94408338 16.29296875 15.92578125 C16.28872391 16.67337204 16.28447906 17.42096283 16.28010559 18.19120789 C16.26339056 20.56534732 16.22575347 22.93861967 16.1875 25.3125 C16.17244381 26.92772206 16.15875703 28.54295751 16.14648438 30.15820312 C16.1135108 34.10579988 16.06177969 38.05275322 16 42 C13.36 42.33 10.72 42.66 8 43 C8.33 42.01 8.66 41.02 9 40 C10.98 40.33 12.96 40.66 15 41 C15 39.68 15 38.36 15 37 C12.03 37.495 12.03 37.495 9 38 C8.06934867 35.39417629 7.85082593 34.35801776 8.9375 31.75 C9.4634375 30.88375 9.4634375 30.88375 10 30 C8.02 30.99 8.02 30.99 6 32 C6 32.66 6 33.32 6 34 C5.154375 33.690625 4.30875 33.38125 3.4375 33.0625 C0.02100938 31.9062893 0.02100938 31.9062893 -3.5625 31.5 C-6.78288259 31.03158071 -9.1960541 30.64937994 -12 29 C-12.8125 26.375 -12.8125 26.375 -13 24 C-10.45350007 22.26838004 -8.98923524 22.0002153 -5.875 22.0625 C-0.74290085 23.30413689 3.34361503 25.51234228 8 28 C8 21.73 8 15.46 8 9 C5.69 9 3.38 9 1 9 C0.67 6.03 0.34 3.06 0 0 Z " fill="#31495E" transform="translate(150,230)"/>
<path d="M0 0 C0.33 0 0.66 0 1 0 C1 22.77 1 45.54 1 69 C0.67 67.68 0.34 66.36 0 65 C-1.98 65.495 -1.98 65.495 -4 66 C-7.06547744 54.60567818 -7.06547744 54.60567818 -7.375 49.25 C-7.79136085 44.39540971 -9.94119226 40.73536647 -13 37 C-13.66 36.67 -14.32 36.34 -15 36 C-15 35.34 -15 34.68 -15 34 C-14.071875 33.566875 -13.14375 33.13375 -12.1875 32.6875 C-8.57823504 30.77671267 -6.81231422 29.48924273 -4.875 25.9375 C-3.60920571 21.68804773 -3.32534324 17.40925713 -3 13 C-2.34 13 -1.68 13 -1 13 C-0.67 8.71 -0.34 4.42 0 0 Z " fill="#C7D9E4" transform="translate(396,217)"/>
<path d="M0 0 C7.43767576 -0.20306861 14.87463566 -0.34303247 22.31445312 -0.43945312 C24.84434725 -0.47965134 27.37405591 -0.53422071 29.90332031 -0.60351562 C33.54278295 -0.70072044 37.17978743 -0.74596514 40.8203125 -0.78125 C41.94865509 -0.82254028 43.07699768 -0.86383057 44.23953247 -0.90637207 C45.30017914 -0.90697632 46.36082581 -0.90758057 47.45361328 -0.90820312 C48.38182892 -0.92596802 49.31004456 -0.94373291 50.26638794 -0.96203613 C53 0 53 0 59 8 C42.5 8 26 8 9 8 C9.66 7.34 10.32 6.68 11 6 C11.66 6.33 12.32 6.66 13 7 C13 5.35 13 3.7 13 2 C9.87802522 3.3089572 9.87802522 3.3089572 8 6 C6.02 6 4.04 6 2 6 C1.67 5.01 1.34 4.02 1 3 C0.01 3 -0.98 3 -2 3 C-2 3.66 -2 4.32 -2 5 C-3.98 5 -5.96 5 -8 5 C-7.67 4.01 -7.34 3.02 -7 2 C-4.69 2 -2.38 2 0 2 C0 1.34 0 0.68 0 0 Z " fill="#54728F" transform="translate(112,280)"/>
<path d="M0 0 C0.66 0 1.32 0 2 0 C1.67 2.97 1.34 5.94 1 9 C-1.31 9 -3.62 9 -6 9 C-5.67 22.2 -5.34 35.4 -5 49 C-11 49 -11 49 -13 48 C-13.04934154 41.91277254 -13.08569167 35.8256608 -13.10986328 29.73828125 C-13.11993712 27.66632053 -13.13359666 25.59437407 -13.15087891 23.52246094 C-13.17506664 20.54879236 -13.18646908 17.5753113 -13.1953125 14.6015625 C-13.20563507 13.67131256 -13.21595764 12.74106262 -13.22659302 11.78262329 C-13.22674408 10.92188202 -13.22689514 10.06114075 -13.22705078 9.17431641 C-13.231492 8.41486725 -13.23593323 7.65541809 -13.24050903 6.87295532 C-13 5 -13 5 -11 3 C-8.6171875 2.8046875 -8.6171875 2.8046875 -5.875 2.875 C-4.50988281 2.90207031 -4.50988281 2.90207031 -3.1171875 2.9296875 C-2.41851562 2.95289063 -1.71984375 2.97609375 -1 3 C-0.67 2.01 -0.34 1.02 0 0 Z " fill="#273F56" transform="translate(115,230)"/>
<path d="M0 0 C6.85047701 0.57087308 12.49257109 2.42658612 17.375 7.4375 C21.03795669 13.21370094 21.83631187 18.21658146 21 25 C19.29962469 30.37686246 16.74019164 33.83987224 12 37 C7.125 34.375 7.125 34.375 6 31 C6.7115625 30.319375 6.7115625 30.319375 7.4375 29.625 C10.95952565 25.96209332 10.38445229 21.76603234 10.35546875 16.92578125 C10.21405058 13.75165973 10.21405058 13.75165973 7.6875 10.875 C5.80610181 9.56239661 3.90875072 8.27250048 2 7 C2.66 6.67 3.32 6.34 4 6 C3.67 4.35 3.34 2.7 3 1 C2.01 0.67 1.02 0.34 0 0 Z " fill="#233D53" transform="translate(424,217)"/>
<path d="M0 0 C0.33 0 0.66 0 1 0 C1 9.57 1 19.14 1 29 C-4 31 -4 31 -7 30 C-7.70211894 28.34795544 -8.36971413 26.68076231 -9 25 C-9.66 24.67 -10.32 24.34 -11 24 C-11.52573253 22.3176559 -12 20.77322566 -12 19 C-12.66 18.34 -13.32 17.68 -14 17 C-14.92946617 14.2116015 -15.05976545 12.78150067 -14.9375 9.9375 C-14.54338439 5.99275213 -14.54338439 5.99275213 -17 4 C-15.89591797 4.16048828 -15.89591797 4.16048828 -14.76953125 4.32421875 C-8.69542306 5.15926523 -8.69542306 5.15926523 -2.875 3.6875 C-0.91101074 2.12673179 -0.91101074 2.12673179 0 0 Z " fill="#D2E4ED" transform="translate(99,249)"/>
<path d="M0 0 C1.98 0 3.96 0 6 0 C6 0.66 6 1.32 6 2 C4.35 2 2.7 2 1 2 C1.33 6.29 1.66 10.58 2 15 C2.66 14.67 3.32 14.34 4 14 C4 14.66 4 15.32 4 16 C4.66 16 5.32 16 6 16 C6.33 16.99 6.66 17.98 7 19 C7.33 18.34 7.66 17.68 8 17 C10.79173055 16.97309896 13.58320348 16.95320947 16.375 16.9375 C17.1690625 16.92912109 17.963125 16.92074219 18.78125 16.91210938 C24.7734375 16.88671875 24.7734375 16.88671875 27 18 C27 18.66 27 19.32 27 20 C22.38 20.33 17.76 20.66 13 21 C16.77285617 23.51523745 19.71074884 23.18947417 24.0625 23.0625 C31.75944584 22.87972292 31.75944584 22.87972292 34 24 C34 24.99 34 25.98 34 27 C29.71 27 25.42 27 21 27 C21 27.66 21 28.32 21 29 C25.29 29 29.58 29 34 29 C34 29.33 34 29.66 34 30 C29.38 30 24.76 30 20 30 C19.67 30.66 19.34 31.32 19 32 C19 31.34 19 30.68 19 30 C18.34 30 17.68 30 17 30 C17 30.66 17 31.32 17 32 C14.36 32 11.72 32 9 32 C9.33 31.01 9.66 30.02 10 29 C11.65 28.67 13.3 28.34 15 28 C10.02093741 27.24572703 10.02093741 27.24572703 5 27 C3.68 27 2.36 27 1 27 C1 29.31 1 31.62 1 34 C0.67 34 0.34 34 0 34 C0 22.78 0 11.56 0 0 Z " fill="#AEBBC3" transform="translate(109,239)"/>
<path d="M0 0 C2.43816585 -0.0809723 4.87364384 -0.14046972 7.3125 -0.1875 C8.34793945 -0.22520508 8.34793945 -0.22520508 9.40429688 -0.26367188 C14.48177353 -0.33725849 14.48177353 -0.33725849 16.96875 1.28125 C18.64698532 4.07830887 18.1794193 6.83025911 18 10 C14.83754459 11.0541518 12.13051782 11.31275672 8.8125 11.5625 C7.72582031 11.64628906 6.63914063 11.73007813 5.51953125 11.81640625 C4.68808594 11.87699219 3.85664063 11.93757812 3 12 C4.05270463 13.15811388 4.05270463 13.15811388 6 14 C5.67 16.64 5.34 19.28 5 22 C5.66 22.33 6.32 22.66 7 23 C7 24.32 7 25.64 7 27 C7.33 27.99 7.66 28.98 8 30 C7.484375 29.690625 6.96875 29.38125 6.4375 29.0625 C3.8706075 27.81171983 3.8706075 27.81171983 0.3125 27.5 C-0.780625 27.335 -1.87375 27.17 -3 27 C-4.53266582 23.93466836 -4.10276471 20.73245728 -4.0625 17.375 C-4.05798828 16.66859375 -4.05347656 15.9621875 -4.04882812 15.234375 C-4.03703875 13.48954725 -4.01910324 11.744763 -4 10 C-3.01 10 -2.02 10 -1 10 C-0.67 9.01 -0.34 8.02 0 7 C0.66 6.67 1.32 6.34 2 6 C1.34 5.01 0.68 4.02 0 3 C0 2.01 0 1.02 0 0 Z " fill="#AFC3CE" transform="translate(170,243)"/>
<path d="M0 0 C1.5 1.375 1.5 1.375 3 3 C3 3.66 3 4.32 3 5 C4.32 4.01 5.64 3.02 7 2 C7 2.66 7 3.32 7 4 C8.8871875 4.1546875 8.8871875 4.1546875 10.8125 4.3125 C13.60499657 4.64858808 14.74433121 4.80025876 17 6.5625 C17.33 7.036875 17.66 7.51125 18 8 C16 10 16 10 13.375 10.125 C12.59125 10.08375 11.8075 10.0425 11 10 C11.99 12.31 12.98 14.62 14 17 C12.35 17.33 10.7 17.66 9 18 C9 20.31 9 22.62 9 25 C7.02 25.33 5.04 25.66 3 26 C2.67 25.01 2.34 24.02 2 23 C1.34 22.67 0.68 22.34 0 22 C0 21.34 0 20.68 0 20 C0.66 20 1.32 20 2 20 C2 19.34 2 18.68 2 18 C2.66 17.34 3.32 16.68 4 16 C3.34 15.34 2.68 14.68 2 14 C-1.59679066 14.32326553 -1.59679066 14.32326553 -5 15 C-4.67 13.02 -4.34 11.04 -4 9 C-4.99 8.67 -5.98 8.34 -7 8 C-7 7.34 -7 6.68 -7 6 C-6.401875 5.938125 -5.80375 5.87625 -5.1875 5.8125 C-2.12856542 4.6763243 -1.44958901 2.82669858 0 0 Z " fill="#D5E8EF" transform="translate(133,199)"/>
<path d="M0 0 C4.529087 0.51272683 6.26137669 2.04005127 9.3125 5.375 C10.51486189 9.33572151 10.73965714 11.36331203 9.125 15.1875 C6.40639902 18.46857015 4.55832654 19.18945137 0.375 19.8125 C-3.7282637 19.22631947 -5.0831523 17.50021724 -7.6875 14.375 C-9.13180855 11.48638291 -9.06438506 9.57852299 -8.6875 6.375 C-6.25 3.5625 -6.25 3.5625 -3.6875 1.375 C-2.6875 0.375 -2.6875 0.375 0 0 Z " fill="#2C4053" transform="translate(132.6875,226.625)"/>
<path d="M0 0 C1.41152344 0.07250977 1.41152344 0.07250977 2.8515625 0.14648438 C3.83640625 0.20255859 4.82125 0.25863281 5.8359375 0.31640625 C6.82851562 0.36861328 7.82109375 0.42082031 8.84375 0.47460938 C11.29978318 0.60449574 13.7554311 0.73946789 16.2109375 0.87890625 C16.2109375 1.53890625 16.2109375 2.19890625 16.2109375 2.87890625 C9.2809375 2.87890625 2.3509375 2.87890625 -4.7890625 2.87890625 C-4.4590625 3.53890625 -4.1290625 4.19890625 -3.7890625 4.87890625 C0.50225359 5.07509849 4.79399852 5.25939208 9.0859375 5.44140625 C10.92091797 5.52551758 10.92091797 5.52551758 12.79296875 5.61132812 C13.95957031 5.65966797 15.12617187 5.70800781 16.328125 5.7578125 C17.40690918 5.80494385 18.48569336 5.8520752 19.59716797 5.90063477 C22.1939514 6.07063386 22.1939514 6.07063386 24.2109375 4.87890625 C26.09033203 4.85717773 26.09033203 4.85717773 28.34375 5 C29.14941406 5.04833984 29.95507812 5.09667969 30.78515625 5.14648438 C31.62691406 5.20255859 32.46867187 5.25863281 33.3359375 5.31640625 C34.61017578 5.3947168 34.61017578 5.3947168 35.91015625 5.47460938 C38.01072874 5.60442003 40.11087941 5.74102365 42.2109375 5.87890625 C42.2109375 6.53890625 42.2109375 7.19890625 42.2109375 7.87890625 C56.0709375 8.37390625 56.0709375 8.37390625 70.2109375 8.87890625 C70.2109375 9.20890625 70.2109375 9.53890625 70.2109375 9.87890625 C60.61438446 9.94836469 51.01791773 10.00169625 41.42116833 10.03434277 C36.96517761 10.05001012 32.50935865 10.07126777 28.0534668 10.10522461 C23.7546399 10.13778013 19.45597838 10.1557512 15.15703773 10.16353798 C13.51554065 10.16908836 11.87405279 10.17992674 10.23262596 10.19609642 C7.9363779 10.21782056 5.64081642 10.22087535 3.34448242 10.21948242 C2.03654221 10.22614426 0.72860199 10.23280609 -0.61897278 10.2396698 C-3.7890625 9.87890625 -3.7890625 9.87890625 -5.72319031 8.55683899 C-7.32656827 6.03274614 -6.98316338 3.79041946 -6.7890625 0.87890625 C-4.28805676 -0.37159662 -2.78563198 -0.15102824 0 0 Z " fill="#395368" transform="translate(99.7890625,287.12109375)"/>
<path d="M0 0 C2.875 1.625 2.875 1.625 5 4 C5.4375 7.125 5.4375 7.125 5 10 C4.34 10.66 3.68 11.32 3 12 C2.59952556 14.32275177 2.2602896 16.65739357 2 19 C-2.62 19 -7.24 19 -12 19 C-12.49496539 6.74960667 -12.49496539 6.74960667 -10.109375 3.13671875 C-6.80394973 -0.21155463 -4.65308696 -0.456185 0 0 Z " fill="#16354B" transform="translate(111,205)"/>
<path d="M0 0 C0.99 0.33 1.98 0.66 3 1 C3 1.66 3 2.32 3 3 C3.68707031 2.94199219 4.37414062 2.88398438 5.08203125 2.82421875 C5.98308594 2.77910156 6.88414062 2.73398438 7.8125 2.6875 C8.70582031 2.62949219 9.59914062 2.57148438 10.51953125 2.51171875 C13 3 13 3 14.63671875 5.14453125 C16.20497315 8.42932771 16.34651655 10.55237999 16.29296875 14.17578125 C16.28330078 15.33271484 16.27363281 16.48964844 16.26367188 17.68164062 C16.23853516 18.87982422 16.21339844 20.07800781 16.1875 21.3125 C16.16719727 23.1387793 16.16719727 23.1387793 16.14648438 25.00195312 C16.11119261 28.00175345 16.06188481 31.00064975 16 34 C15.67 34 15.34 34 15 34 C15 31.69 15 29.38 15 27 C14.34 27 13.68 27 13 27 C12.97494385 26.39937744 12.9498877 25.79875488 12.92407227 25.17993164 C12.8084472 22.47388563 12.68557064 19.76821717 12.5625 17.0625 C12.52318359 16.11697266 12.48386719 15.17144531 12.44335938 14.19726562 C12.40146484 13.29814453 12.35957031 12.39902344 12.31640625 11.47265625 C12.27974854 10.64000244 12.24309082 9.80734863 12.20532227 8.94946289 C12.20632897 6.99661142 12.20632897 6.99661142 11 6 C9.65252916 5.76924918 8.29622435 5.58846937 6.9375 5.4375 C5.638125 5.293125 4.33875 5.14875 3 5 C3 5.66 3 6.32 3 7 C3.78375 6.95875 4.5675 6.9175 5.375 6.875 C8 7 8 7 10 9 C10.14517744 11.9093558 10.18630796 14.719946 10.125 17.625 C10.11597656 18.42679688 10.10695312 19.22859375 10.09765625 20.0546875 C10.07406223 22.03658523 10.03819065 24.01832981 10 26 C9.34 26 8.68 26 8 26 C8 20.39 8 14.78 8 9 C5.69 9 3.38 9 1 9 C0.67 6.03 0.34 3.06 0 0 Z " fill="#233C52" transform="translate(150,230)"/>
<path d="M0 0 C1.22589844 0.29197266 1.22589844 0.29197266 2.4765625 0.58984375 C3.41628906 0.82380859 3.41628906 0.82380859 4.375 1.0625 C4.375 4.0325 4.375 7.0025 4.375 10.0625 C2.725 9.4025 1.075 8.7425 -0.625 8.0625 C-0.41875 8.68125 -0.2125 9.3 0 9.9375 C0.12375 10.63875 0.2475 11.34 0.375 12.0625 C-1.625 14.0625 -1.625 14.0625 -3.90234375 14.07421875 C-4.78019531 13.96722656 -5.65804687 13.86023438 -6.5625 13.75 C-7.43777344 13.65074219 -8.31304687 13.55148438 -9.21484375 13.44921875 C-11.625 13.0625 -11.625 13.0625 -14.625 12.0625 C-13.965 11.27875 -13.305 10.495 -12.625 9.6875 C-10.42298559 7.34737188 -10.42298559 7.34737188 -10.625 5.0625 C-9.305 5.0625 -7.985 5.0625 -6.625 5.0625 C-6.625 3.4125 -6.625 1.7625 -6.625 0.0625 C-3.99249612 -1.25375194 -2.82320944 -0.68563658 0 0 Z " fill="#F4F9FA" transform="translate(152.625,239.9375)"/>
<path d="M0 0 C7.56843403 1.4648582 7.56843403 1.4648582 9.5625 3.9375 C10 6 10 6 9 9 C9.66 9.33 10.32 9.66 11 10 C9.35 11.65 7.7 13.3 6 15 C3.53199953 13.84826645 1.95216435 12.95216435 0 11 C-0.125 8.375 -0.125 8.375 0 6 C-1.60875 6.495 -1.60875 6.495 -3.25 7 C-7 8 -7 8 -11 8 C-11 6.35 -11 4.7 -11 3 C-10.01 2.67 -9.02 2.34 -8 2 C-8 2.99 -8 3.98 -8 5 C-7.34 4.67 -6.68 4.34 -6 4 C-4.00039988 3.960008 -1.99952758 3.95653201 0 4 C0 2.68 0 1.36 0 0 Z " fill="#D5E8F1" transform="translate(166,268)"/>
<path d="M0 0 C4.29 0 8.58 0 13 0 C13 1.98 13 3.96 13 6 C13.721875 6.020625 14.44375 6.04125 15.1875 6.0625 C19.91757161 7.63919054 21.75355837 11.61140071 23.98046875 15.87890625 C25.50372321 19.19001807 26 21.29705256 26 25 C25.34 25 24.68 25 24 25 C23.76925781 24.28972656 23.53851563 23.57945312 23.30078125 22.84765625 C22.81158203 21.46900391 22.81158203 21.46900391 22.3125 20.0625 C21.99925781 19.14597656 21.68601563 18.22945312 21.36328125 17.28515625 C20.18742244 14.73467787 20.18742244 14.73467787 17.35546875 14.18359375 C16.57816406 14.12300781 15.80085938 14.06242188 15 14 C14.67 11.69 14.34 9.38 14 7 C13.34 7 12.68 7 12 7 C12 5.35 12 3.7 12 2 C11.34 2 10.68 2 10 2 C10 2.99 10 3.98 10 5 C7.59454362 6.20272819 6.05003047 6.10071472 3.375 6.0625 C2.14910156 6.04896484 2.14910156 6.04896484 0.8984375 6.03515625 C-0.04128906 6.01775391 -0.04128906 6.01775391 -1 6 C-1 5.01 -1 4.02 -1 3 C1.31 3 3.62 3 6 3 C6 2.34 6 1.68 6 1 C4.02 1 2.04 1 0 1 C0 0.67 0 0.34 0 0 Z M13 15 C14.32 15 15.64 15 17 15 C17 16.65 17 18.3 17 20 C16.34 20 15.68 20 15 20 C14.34 18.35 13.68 16.7 13 15 Z " fill="#90A4B1" transform="translate(156,211)"/>
<path d="M0 0 C3.79165074 -0.0289337 7.58327327 -0.04677601 11.375 -0.0625 C12.45523438 -0.07087891 13.53546875 -0.07925781 14.6484375 -0.08789062 C16.1953125 -0.09272461 16.1953125 -0.09272461 17.7734375 -0.09765625 C18.72653809 -0.10289307 19.67963867 -0.10812988 20.66162109 -0.11352539 C23 0 23 0 25 1 C25 1.99 25 2.98 25 4 C20.71 4 16.42 4 12 4 C12 4.66 12 5.32 12 6 C16.29 6 20.58 6 25 6 C25 6.33 25 6.66 25 7 C20.38 7 15.76 7 11 7 C10.67 7.66 10.34 8.32 10 9 C10 8.34 10 7.68 10 7 C9.34 7 8.68 7 8 7 C8 7.66 8 8.32 8 9 C5.36 9 2.72 9 0 9 C0.33 8.01 0.66 7.02 1 6 C2.65 5.67 4.3 5.34 6 5 C6 4.67 6 4.34 6 4 C3.03 3.505 3.03 3.505 0 3 C0 2.01 0 1.02 0 0 Z " fill="#ADB9C1" transform="translate(118,262)"/>
<path d="M0 0 C2.77239276 2.3943392 4.00264054 4.47088191 5 8 C5.54794521 15.90410959 5.54794521 15.90410959 4 19 C1.4375 19.625 1.4375 19.625 -1 20 C-1 19.34 -1 18.68 -1 18 C-2.32 18.33 -3.64 18.66 -5 19 C-5 15.04 -5 11.08 -5 7 C-3.68 7 -2.36 7 -1 7 C-1.66 6.67 -2.32 6.34 -3 6 C-3 5.34 -3 4.68 -3 4 C-2.34 3.67 -1.68 3.34 -1 3 C-0.67 2.01 -0.34 1.02 0 0 Z " fill="#284257" transform="translate(388,223)"/>
<path d="M0 0 C6.0546875 -0.1953125 6.0546875 -0.1953125 8 0 C10 2 10 2 10.22705078 4.06298828 C10.21134033 5.30411377 10.21134033 5.30411377 10.1953125 6.5703125 C10.18564453 7.91416016 10.18564453 7.91416016 10.17578125 9.28515625 C10.15902344 10.22230469 10.14226562 11.15945312 10.125 12.125 C10.11597656 13.06988281 10.10695312 14.01476562 10.09765625 14.98828125 C10.07404522 17.32577292 10.04111516 19.66276123 10 22 C10.66 22 11.32 22 12 22 C12.84681133 27.08086796 13.09038099 31.84828377 13 37 C10.36 37.33 7.72 37.66 5 38 C5.33 37.01 5.66 36.02 6 35 C7.98 35.33 9.96 35.66 12 36 C12 34.68 12 33.36 12 32 C9.03 32.495 9.03 32.495 6 33 C5.375 31.1875 5.375 31.1875 5 29 C5.66 28.01 6.32 27.02 7 26 C7.3663859 23.58286521 7.3663859 23.58286521 7.4140625 20.89453125 C7.47207031 19.42016602 7.47207031 19.42016602 7.53125 17.91601562 C7.57765625 16.37977539 7.57765625 16.37977539 7.625 14.8125 C7.68300781 13.25885742 7.68300781 13.25885742 7.7421875 11.67382812 C7.83648296 9.11606378 7.92208202 6.55830713 8 4 C5.36 3.34 2.72 2.68 0 2 C0 1.34 0 0.68 0 0 Z " fill="#314C62" transform="translate(153,235)"/>
<path d="M0 0 C1.670625 0.061875 1.670625 0.061875 3.375 0.125 C3.375 0.785 3.375 1.445 3.375 2.125 C1.725 2.455 0.075 2.785 -1.625 3.125 C-1.955 15.995 -2.285 28.865 -2.625 42.125 C-3.615 42.125 -4.605 42.125 -5.625 42.125 C-5.67434926 36.46501954 -5.71069529 30.80516364 -5.73486328 25.14501953 C-5.74493582 23.21856506 -5.75859443 21.29212592 -5.77587891 19.36572266 C-5.80007241 16.60054748 -5.81147036 13.835574 -5.8203125 11.0703125 C-5.83063507 10.2056839 -5.84095764 9.3410553 -5.85159302 8.45022583 C-5.85199106 6.34046479 -5.74765243 4.23119282 -5.625 2.125 C-3.625 0.125 -3.625 0.125 0 0 Z " fill="#45607D" transform="translate(109.625,234.875)"/>
<path d="M0 0 C0.33 0.99 0.66 1.98 1 3 C2.32 3 3.64 3 5 3 C5 2.34 5 1.68 5 1 C5.63808594 1.01160156 6.27617187 1.02320313 6.93359375 1.03515625 C7.75988281 1.04417969 8.58617187 1.05320312 9.4375 1.0625 C10.67306641 1.07990234 10.67306641 1.07990234 11.93359375 1.09765625 C13.99163938 1.23267348 13.99163938 1.23267348 15 0 C16.99958364 -0.04080783 19.00045254 -0.04254356 21 0 C21.495 1.98 21.495 1.98 22 4 C21.36191406 3.98839844 20.72382813 3.97679687 20.06640625 3.96484375 C19.24011719 3.95582031 18.41382813 3.94679688 17.5625 3.9375 C16.73878906 3.92589844 15.91507813 3.91429687 15.06640625 3.90234375 C13.00836062 3.76732652 13.00836062 3.76732652 12 5 C10 5 8 5 6 5 C4.66457061 5.32483418 3.33038449 5.6550855 2 6 C1.67 5.67 1.34 5.34 1 5 C-0.99958364 4.95919217 -3.00045254 4.95745644 -5 5 C-5.33 3.68 -5.66 2.36 -6 1 C-6.99 1 -7.98 1 -9 1 C-9 1.99 -9 2.98 -9 4 C-10.98 4 -12.96 4 -15 4 C-15 2.68 -15 1.36 -15 0 C-9.96266834 -1.5111995 -5.11828973 -0.64599773 0 0 Z " fill="#86A2B5" transform="translate(141,281)"/>
<path d="M0 0 C4.529087 0.51272683 6.26137669 2.04005127 9.3125 5.375 C10.51486189 9.33572151 10.73965714 11.36331203 9.125 15.1875 C6.40639902 18.46857015 4.55832654 19.18945137 0.375 19.8125 C-3.7282637 19.22631947 -5.0831523 17.50021724 -7.6875 14.375 C-9.13180855 11.48638291 -9.06438506 9.57852299 -8.6875 6.375 C-6.25 3.5625 -6.25 3.5625 -3.6875 1.375 C-2.6875 0.375 -2.6875 0.375 0 0 Z M-4.625 4.4375 C-6.3015629 7.49476176 -6.05278977 9.9656288 -5.6875 13.375 C-4.77083333 15.45833333 -4.77083333 15.45833333 -2.6875 16.375 C0.7218712 16.74028977 3.19273824 16.9890629 6.25 15.3125 C7.9265629 12.25523824 7.67778977 9.7843712 7.3125 6.375 C6.39583333 4.29166667 6.39583333 4.29166667 4.3125 3.375 C0.9031288 3.00971023 -1.56773824 2.7609371 -4.625 4.4375 Z " fill="#87AECB" transform="translate(132.6875,226.625)"/>
<path d="M0 0 C3.875 0.875 3.875 0.875 5 2 C5.1875 5.4375 5.1875 5.4375 5 9 C3 11 3 11 0.20263672 11.22705078 C-0.95993652 11.21657715 -2.12250977 11.20610352 -3.3203125 11.1953125 C-5.20556641 11.18564453 -5.20556641 11.18564453 -7.12890625 11.17578125 C-8.44761719 11.15902344 -9.76632813 11.14226562 -11.125 11.125 C-12.46483721 11.11496983 -13.80468152 11.10584404 -15.14453125 11.09765625 C-18.42986573 11.07402075 -21.71484465 11.04107234 -25 11 C-25 10.01 -25 9.02 -25 8 C-16.42 8 -7.84 8 1 8 C1.33 7.01 1.66 6.02 2 5 C-5.26 5 -12.52 5 -20 5 C-20 4.34 -20 3.68 -20 3 C-9.605 2.505 -9.605 2.505 1 2 C0.67 1.34 0.34 0.68 0 0 Z " fill="#1E3952" transform="translate(169,285)"/>
<path d="M0 0 C1.33998047 0.06960938 1.33998047 0.06960938 2.70703125 0.140625 C3.60808594 0.17671875 4.50914063 0.2128125 5.4375 0.25 C6.46810547 0.31960938 6.46810547 0.31960938 7.51953125 0.390625 C7.51953125 1.050625 7.51953125 1.710625 7.51953125 2.390625 C5.20953125 2.390625 2.89953125 2.390625 0.51953125 2.390625 C0.51953125 3.050625 0.51953125 3.710625 0.51953125 4.390625 C2.16953125 4.720625 3.81953125 5.050625 5.51953125 5.390625 C5.51953125 4.730625 5.51953125 4.070625 5.51953125 3.390625 C6.83953125 3.060625 8.15953125 2.730625 9.51953125 2.390625 C9.51953125 3.710625 9.51953125 5.030625 9.51953125 6.390625 C11.49953125 6.390625 13.47953125 6.390625 15.51953125 6.390625 C16.17953125 5.070625 16.83953125 3.750625 17.51953125 2.390625 C18.50953125 2.390625 19.49953125 2.390625 20.51953125 2.390625 C20.51953125 4.040625 20.51953125 5.690625 20.51953125 7.390625 C17.2432675 8.3728244 14.29165006 8.50643414 10.87890625 8.48828125 C9.80898437 8.48505859 8.7390625 8.48183594 7.63671875 8.47851562 C6.52554688 8.47013672 5.414375 8.46175781 4.26953125 8.453125 C2.57957031 8.44635742 2.57957031 8.44635742 0.85546875 8.43945312 C-1.92323092 8.42767897 -4.70182284 8.4112334 -7.48046875 8.390625 C-3.61830041 0.56981109 -3.61830041 0.56981109 0 0 Z " fill="#516F89" transform="translate(104.48046875,279.609375)"/>
<path d="M0 0 C2.43816585 -0.0809723 4.87364384 -0.14046972 7.3125 -0.1875 C8.34793945 -0.22520508 8.34793945 -0.22520508 9.40429688 -0.26367188 C14.48177353 -0.33725849 14.48177353 -0.33725849 16.96875 1.28125 C18.64698532 4.07830887 18.1794193 6.83025911 18 10 C17.34 9.67 16.68 9.34 16 9 C13.28737884 8.7677354 10.59226874 8.58063765 7.875 8.4375 C7.12089844 8.39431641 6.36679688 8.35113281 5.58984375 8.30664062 C3.72678112 8.2005168 1.86341476 8.09974999 0 8 C0.66 7.34 1.32 6.68 2 6 C1.34 5.01 0.68 4.02 0 3 C0 2.01 0 1.02 0 0 Z " fill="#CFE1E9" transform="translate(170,243)"/>
<path d="M0 0 C1.98 0.495 1.98 0.495 4 1 C4.33 4.3 4.66 7.6 5 11 C7.31 11 9.62 11 12 11 C12 17.27 12 23.54 12 30 C6 28 6 28 4 26 C4.33 25.38125 4.66 24.7625 5 24.125 C6.14193235 22.08981656 6.14193235 22.08981656 6 20 C7.32 20.33 8.64 20.66 10 21 C10.33 18.36 10.66 15.72 11 13 C9.4221875 13.0309375 9.4221875 13.0309375 7.8125 13.0625 C4.67295096 13.01103198 2.03116604 12.73482813 -1 12 C-1 11.34 -1 10.68 -1 10 C-0.01 10 0.98 10 2 10 C2 8.68 2 7.36 2 6 C1.01 6 0.02 6 -1 6 C-0.67 4.02 -0.34 2.04 0 0 Z " fill="#D6DEE3" transform="translate(146,228)"/>
<path d="M0 0 C1.5 1.3125 1.5 1.3125 3 3 C3 3.99 3 4.98 3 6 C4.65 6 6.3 6 8 6 C7.67 6.99 7.34 7.98 7 9 C6.34 9 5.68 9 5 9 C5 10.98 5 12.96 5 15 C4.0925 14.814375 3.185 14.62875 2.25 14.4375 C-0.68314324 14.04265379 -2.2644657 14.05308428 -5 15 C-4.67 13.02 -4.34 11.04 -4 9 C-4.99 8.67 -5.98 8.34 -7 8 C-7 7.34 -7 6.68 -7 6 C-6.401875 5.938125 -5.80375 5.87625 -5.1875 5.8125 C-2.12856542 4.6763243 -1.44958901 2.82669858 0 0 Z " fill="#4C5750" transform="translate(133,199)"/>
<path d="M0 0 C4.54079891 -0.23290742 9.08006094 -0.37462237 13.625 -0.5 C15.55279297 -0.60054688 15.55279297 -0.60054688 17.51953125 -0.703125 C26.89462038 -0.89742737 26.89462038 -0.89742737 30.23730469 1.81640625 C31.8984375 4.03125 31.8984375 4.03125 34 8 C28.06 8 22.12 8 16 8 C19.08888522 5.94074319 19.70935927 5.7609626 23.1875 5.875 C25.0746875 5.936875 25.0746875 5.936875 27 6 C26.34 4.35 25.68 2.7 25 1 C23.845 1.350625 22.69 1.70125 21.5 2.0625 C17.0165701 3.20737585 13.527854 2.80854536 9 2 C9 2.66 9 3.32 9 4 C7.68 4 6.36 4 5 4 C4.67 3.34 4.34 2.68 4 2 C1.98330173 0.86649466 1.98330173 0.86649466 0 0 Z " fill="#4F6B87" transform="translate(137,280)"/>
<path d="M0 0 C2.31 0 4.62 0 7 0 C6.67 1.65 6.34 3.3 6 5 C-2.58 5 -11.16 5 -20 5 C-20.33 4.01 -20.66 3.02 -21 2 C-14.07 2 -7.14 2 0 2 C0 1.34 0 0.68 0 0 Z " fill="#405E7A" transform="translate(116,288)"/>
<path d="M0 0 C1.65 0 3.3 0 5 0 C5 0.66 5 1.32 5 2 C12.26 2 19.52 2 27 2 C27 2.99 27 3.98 27 5 C18.42 5 9.84 5 1 5 C0.67 3.35 0.34 1.7 0 0 Z " fill="#405E7B" transform="translate(144,288)"/>
<path d="M0 0 C0.66 0 1.32 0 2 0 C2 0.99 2 1.98 2 3 C3.65 3.33 5.3 3.66 7 4 C7 2.68 7 1.36 7 0 C7.66 0 8.32 0 9 0 C9 1.98 9 3.96 9 6 C8.34 6 7.68 6 7 6 C7.33 6.66 7.66 7.32 8 8 C8.66 7.67 9.32 7.34 10 7 C10.75 8.75 10.75 8.75 11 11 C9.25 13.25 9.25 13.25 7 15 C6.01 15 5.02 15 4 15 C3 11.125 3 11.125 3 10 C2.34 9.34 1.68 8.68 1 8 C0.43479997 5.34462628 0.26211802 2.70855287 0 0 Z " fill="#B7CAD4" transform="translate(84,258)"/>
<path d="M0 0 C0.99 0.33 1.98 0.66 3 1 C2.67 2.98 2.34 4.96 2 7 C2.5775 6.649375 3.155 6.29875 3.75 5.9375 C6.35801776 4.85082593 7.39417629 5.06934867 10 6 C7 8 7 8 5 8 C5 8.99 5 9.98 5 11 C3.68 11 2.36 11 1 11 C0.67 11.66 0.34 12.32 0 13 C-0.66 12.67 -1.32 12.34 -2 12 C-2 10.35 -2 8.7 -2 7 C-4.475 6.01 -4.475 6.01 -7 5 C-6.67 4.01 -6.34 3.02 -6 2 C-1.125 2.875 -1.125 2.875 0 4 C-0.33 3.01 -0.66 2.02 -1 1 C-0.67 0.67 -0.34 0.34 0 0 Z " fill="#D5E4ED" transform="translate(126,207)"/>
<path d="M0 0 C3 3.75 3 3.75 3 6 C3.886875 5.67 4.77375 5.34 5.6875 5 C8.70923347 4.08777857 10.88373706 3.81669042 14 4 C14.2475 4.886875 14.495 5.77375 14.75 6.6875 C16.03934768 10.10427135 17.59980129 12.2797748 20 15 C17.8125 14.875 17.8125 14.875 15 14 C14.278125 12.989375 13.55625 11.97875 12.8125 10.9375 C11.07823451 8.59344438 10.39959022 8.06209017 7.4609375 7.60546875 C4.94946939 7.62315515 2.49718203 7.73815955 0 8 C0 5.36 0 2.72 0 0 Z " fill="#233D52" transform="translate(152,270)"/>
<path d="M0 0 C6.0546875 -0.1953125 6.0546875 -0.1953125 8 0 C10 2 10 2 10.22705078 4.33837891 C10.21134033 5.76802979 10.21134033 5.76802979 10.1953125 7.2265625 C10.18564453 8.7734375 10.18564453 8.7734375 10.17578125 10.3515625 C10.15902344 11.43179688 10.14226562 12.51203125 10.125 13.625 C10.11597656 14.71296875 10.10695312 15.8009375 10.09765625 16.921875 C10.07403409 19.61480152 10.04109556 22.30729255 10 25 C9.34 25 8.68 25 8 25 C8 18.07 8 11.14 8 4 C5.36 3.34 2.72 2.68 0 2 C0 1.34 0 0.68 0 0 Z " fill="#43607B" transform="translate(153,235)"/>
<path d="M0 0 C0.66 0.33 1.32 0.66 2 1 C1.67 2.32 1.34 3.64 1 5 C-8.24 5 -17.48 5 -27 5 C-27 4.01 -27 3.02 -27 2 C-18.42 2 -9.84 2 -1 2 C-0.67 1.34 -0.34 0.68 0 0 Z " fill="#19344B" transform="translate(171,291)"/>
<path d="M0 0 C2 2 2 2 2 6 C1.34 6 0.68 6 0 6 C0 5.34 0 4.68 0 4 C-2.31 4 -4.62 4 -7 4 C-7 4.66 -7 5.32 -7 6 C-5.35 6 -3.7 6 -2 6 C-2 6.33 -2 6.66 -2 7 C-3.98 7 -5.96 7 -8 7 C-7.67 7.99 -7.34 8.98 -7 10 C-5.35 10.33 -3.7 10.66 -2 11 C-2 11.33 -2 11.66 -2 12 C-4.31 12 -6.62 12 -9 12 C-9.08131463 10.56344146 -9.13933559 9.1255517 -9.1875 7.6875 C-9.22230469 6.88699219 -9.25710937 6.08648437 -9.29296875 5.26171875 C-9 3 -9 3 -7.6796875 1.2265625 C-5.12347196 -0.64006931 -3.06777019 -0.32635853 0 0 Z " fill="#C7E5F6" transform="translate(111,208)"/>
<path d="M0 0 C4.96916636 0.51405169 9.29026351 1.23384882 14 3 C14 3.99 14 4.98 14 6 C13.34 6 12.68 6 12 6 C12.20625 6.7425 12.4125 7.485 12.625 8.25 C13.04408751 11.32330841 12.61949011 12.42786866 11 15 C11 14.34 11 13.68 11 13 C10.34 12.67 9.68 12.34 9 12 C9.66 12 10.32 12 11 12 C10.01 11.01 9.02 10.02 8 9 C8 9.66 8 10.32 8 11 C6.68 10.67 5.36 10.34 4 10 C4 9.34 4 8.68 4 8 C5.98 7.34 7.96 6.68 10 6 C7.80202597 3.80202597 6.82453855 3.54102483 3.875 2.875 C2.59625 2.58625 1.3175 2.2975 0 2 C0 1.34 0 0.68 0 0 Z " fill="#A9BDC5" transform="translate(140,201)"/>
<path d="M0 0 C0.33 0.66 0.66 1.32 1 2 C3.01695593 2.22772083 5.03435548 2.4529215 7.0546875 2.6484375 C9.49611941 3.08966013 10.59116501 3.9747997 12 6 C10 8 10 8 6.0625 8.0625 C5.37285156 8.03285156 4.68320313 8.00320312 3.97265625 7.97265625 C1.78493865 7.90332679 1.78493865 7.90332679 -1 9 C-1 7 -1 7 0.5 5.375 C0.995 4.92125 1.49 4.4675 2 4 C0.35 4 -1.3 4 -3 4 C-2.01 2.68 -1.02 1.36 0 0 Z " fill="#C6DAE5" transform="translate(139,201)"/>
<path d="M0 0 C0 1.32 0 2.64 0 4 C-1.98 4 -3.96 4 -6 4 C-6 3.01 -6 2.02 -6 1 C-6.99 1 -7.98 1 -9 1 C-9 1.99 -9 2.98 -9 4 C-10.98 4 -12.96 4 -15 4 C-15 2.68 -15 1.36 -15 0 C-9.96266834 -1.5111995 -5.11828973 -0.64599773 0 0 Z " fill="#9EBBCD" transform="translate(141,281)"/>
<path d="M0 0 C1.98 0.495 1.98 0.495 4 1 C4.33 4.3 4.66 7.6 5 11 C7.31 11 9.62 11 12 11 C12 11.33 12 11.66 12 12 C7.71 12 3.42 12 -1 12 C-1 11.34 -1 10.68 -1 10 C-0.01 10 0.98 10 2 10 C2 8.68 2 7.36 2 6 C1.01 6 0.02 6 -1 6 C-0.67 4.02 -0.34 2.04 0 0 Z " fill="#C3D6E0" transform="translate(146,228)"/>
<path d="M0 0 C2.97 0.33 5.94 0.66 9 1 C8.67 2.65 8.34 4.3 8 6 C6.02 6 4.04 6 2 6 C1.67 5.01 1.34 4.02 1 3 C0.01 3 -0.98 3 -2 3 C-2 3.66 -2 4.32 -2 5 C-3.98 5 -5.96 5 -8 5 C-7.67 4.01 -7.34 3.02 -7 2 C-4.69 2 -2.38 2 0 2 C0 1.34 0 0.68 0 0 Z " fill="#6A88A1" transform="translate(112,280)"/>
<path d="M0 0 C1.05960938 0.00676758 1.05960938 0.00676758 2.140625 0.01367188 C3.88545275 0.02546125 5.630237 0.04339676 7.375 0.0625 C7.375 0.7225 7.375 1.3825 7.375 2.0625 C8.035 2.3925 8.695 2.7225 9.375 3.0625 C2.115 3.0625 -5.145 3.0625 -12.625 3.0625 C-8.15157497 0.08021665 -5.2567868 -0.06304265 0 0 Z " fill="#264358" transform="translate(134.625,292.9375)"/>
<path d="M0 0 C5.85272256 0.45020943 10.08220119 3.03839227 15 6 C14.67 6.99 14.34 7.98 14 9 C8.52067211 7.45454854 3.88570819 4.84456788 -1 2 C-0.67 1.34 -0.34 0.68 0 0 Z " fill="#D5E6ED" transform="translate(142,255)"/>
<path d="M0 0 C2.31 0 4.62 0 7 0 C8.25541557 3.76624671 7.37061958 5.37188934 6 9 C3.36 9 0.72 9 -2 9 C-1.34 8.34 -0.68 7.68 0 7 C-0.30271961 5.65938457 -0.63837971 4.32594105 -1 3 C-0.67 2.01 -0.34 1.02 0 0 Z " fill="#7A92A1" transform="translate(104,212)"/>
<path d="M0 0 C0.66 0 1.32 0 2 0 C0.8881121 3.23458297 -0.55780571 5.91913511 -2.4375 8.75 C-5.13809822 12.93672623 -6.64173009 17.22949104 -8 22 C-8.66 22 -9.32 22 -10 22 C-9.4647654 13.79306953 -5.73133219 5.92896434 0 0 Z " fill="#334A57" transform="translate(94,217)"/>
<path d="M0 0 C0.66 0.33 1.32 0.66 2 1 C1.6803125 1.55429688 1.360625 2.10859375 1.03125 2.6796875 C-0.44361675 5.99813768 -0.44321934 9.16824582 -0.65625 12.7578125 C-1 15 -1 15 -3 17 C1.29 17 5.58 17 10 17 C10 17.33 10 17.66 10 18 C5.38 18 0.76 18 -4 18 C-4.49615385 5.72019231 -4.49615385 5.72019231 -1.984375 2.07421875 C-1.32953125 1.38972656 -0.6746875 0.70523438 0 0 Z " fill="#455E6E" transform="translate(103,206)"/>
<path d="M0 0 C1.98 0 3.96 0 6 0 C6 0.99 6 1.98 6 3 C6.99 3 7.98 3 9 3 C9.66 2.34 10.32 1.68 11 1 C11 2.65 11 4.3 11 6 C5.375 9 5.375 9 2 9 C2.33 7.02 2.66 5.04 3 3 C2.01 2.67 1.02 2.34 0 2 C0 1.34 0 0.68 0 0 Z " fill="#2D3739" transform="translate(126,205)"/>
<path d="M0 0 C1.37478516 0.01740234 1.37478516 0.01740234 2.77734375 0.03515625 C3.69644531 0.04417969 4.61554688 0.05320312 5.5625 0.0625 C6.27277344 0.07410156 6.98304687 0.08570313 7.71484375 0.09765625 C7.71484375 0.75765625 7.71484375 1.41765625 7.71484375 2.09765625 C5.40484375 2.09765625 3.09484375 2.09765625 0.71484375 2.09765625 C0.71484375 2.75765625 0.71484375 3.41765625 0.71484375 4.09765625 C2.36484375 4.42765625 4.01484375 4.75765625 5.71484375 5.09765625 C5.71484375 5.42765625 5.71484375 5.75765625 5.71484375 6.09765625 C4.25748288 6.29257077 2.79889782 6.47834983 1.33984375 6.66015625 C0.52773437 6.76457031 -0.284375 6.86898438 -1.12109375 6.9765625 C-3.28515625 7.09765625 -3.28515625 7.09765625 -5.28515625 6.09765625 C-2.98903326 0.12773646 -2.98903326 0.12773646 0 0 Z " fill="#5C7992" transform="translate(104.28515625,279.90234375)"/>
<path d="M0 0 C4.52804747 -0.07674657 8.58064313 -0.0749787 13 1 C14.3921875 1.2784375 14.3921875 1.2784375 15.8125 1.5625 C16.534375 1.706875 17.25625 1.85125 18 2 C18 2.33 18 2.66 18 3 C13.38 3 8.76 3 4 3 C4 3.66 4 4.32 4 5 C2.35 5 0.7 5 -1 5 C-0.67 3.35 -0.34 1.7 0 0 Z " fill="#FDFEFE" transform="translate(66,187)"/>
<path d="M0 0 C5.61 0 11.22 0 17 0 C17 0.66 17 1.32 17 2 C13.99686252 3.50156874 11.20932478 3.09281204 7.875 3.0625 C6.59367188 3.05347656 5.31234375 3.04445313 3.9921875 3.03515625 C2.51105469 3.01775391 2.51105469 3.01775391 1 3 C0.67 2.01 0.34 1.02 0 0 Z " fill="#D1E2F0" transform="translate(125,290)"/>
<path d="M0 0 C3.62744948 2.41829965 3.79171494 3.94361443 5 8 C6.96822886 9.96822886 10.34808709 9.66248381 13 10 C12.67 10.99 12.34 11.98 12 13 C9.3125 13.3125 9.3125 13.3125 6 13 C3.42714276 10.827365 1.51003081 9.02006162 0 6 C-0.039992 4.00039988 -0.04346799 1.99952758 0 0 Z " fill="#7DA1BC" transform="translate(124,233)"/>
<path d="M0 0 C2.5 0.125 2.5 0.125 3.5 1.125 C3.625 3.625 3.625 3.625 3.5 6.125 C2.5 7.125 2.5 7.125 0.0625 7.3125 C-2.5 7.125 -2.5 7.125 -4.5 5.125 C-3.7519084 0.18759542 -3.7519084 0.18759542 0 0 Z " fill="#F4F9F9" transform="translate(133.5,232.875)"/>
<path d="M0 0 C3.69212837 -0.3434538 5.60790131 -0.221621 8.875 1.625 C11 4 11 4 11.3125 7.25 C11.1578125 8.61125 11.1578125 8.61125 11 10 C9.68 9.67 8.36 9.34 7 9 C6.67 7.35 6.34 5.7 6 4 C3.69 4 1.38 4 -1 4 C-0.67 2.68 -0.34 1.36 0 0 Z " fill="#314959" transform="translate(105,205)"/>
<path d="M0 0 C7.59 0 15.18 0 23 0 C17.09966113 2.95016944 15.44081822 2.93495748 9 2 C9 2.66 9 3.32 9 4 C7.68 4 6.36 4 5 4 C4.67 3.34 4.34 2.68 4 2 C2.68 1.34 1.36 0.68 0 0 Z " fill="#557691" transform="translate(137,280)"/>
<path d="M0 0 C5.28 0 10.56 0 16 0 C15.67 0.99 15.34 1.98 15 3 C10.05 3 5.1 3 0 3 C0 2.01 0 1.02 0 0 Z " fill="#49616F" transform="translate(81,243)"/>
<path d="M0 0 C5.45537136 2.1419137 7.56000643 6.93115888 10 12 C10.66858934 14.44574295 10.88923171 16.45232934 11 19 C10.34 19 9.68 19 9 19 C8.76925781 18.34773438 8.53851563 17.69546875 8.30078125 17.0234375 C6.71191455 12.76552595 5.29571368 8.99001255 2.25 5.5625 C0 3 0 3 0 0 Z " fill="#374E5B" transform="translate(171,217)"/>
<path d="M0 0 C4.95 0 9.9 0 15 0 C15 0.99 15 1.98 15 3 C10.05 3 5.1 3 0 3 C0 2.01 0 1.02 0 0 Z " fill="#466072" transform="translate(170,243)"/>
<path d="M0 0 C6.625 -0.125 6.625 -0.125 10 1 C10 2.32 10 3.64 10 5 C7.59454362 6.20272819 6.05003047 6.10071472 3.375 6.0625 C2.14910156 6.04896484 2.14910156 6.04896484 0.8984375 6.03515625 C-0.04128906 6.01775391 -0.04128906 6.01775391 -1 6 C-1 5.01 -1 4.02 -1 3 C1.31 3 3.62 3 6 3 C6 2.34 6 1.68 6 1 C4.02 1 2.04 1 0 1 C0 0.67 0 0.34 0 0 Z " fill="#ACC9D8" transform="translate(156,211)"/>
<path d="M0 0 C1.32 0.66 2.64 1.32 4 2 C-0.73898266 4.45153075 -5.12062333 4.23154206 -10.3125 4.125 C-11.14845703 4.11597656 -11.98441406 4.10695313 -12.84570312 4.09765625 C-14.89725969 4.07420989 -16.94866777 4.03834266 -19 4 C-18.67 3.34 -18.34 2.68 -18 2 C-16.17662109 1.90912109 -16.17662109 1.90912109 -14.31640625 1.81640625 C-12.73175772 1.73201668 -11.14712298 1.6473679 -9.5625 1.5625 C-8.76005859 1.52318359 -7.95761719 1.48386719 -7.13085938 1.44335938 C-3.24760439 1.5945704 -3.24760439 1.5945704 0 0 Z " fill="#18354B" transform="translate(123,292)"/>
<path d="M0 0 C4.29 0 8.58 0 13 0 C13.33 0.99 13.66 1.98 14 3 C12.58566794 3.2236337 11.16832382 3.42826476 9.75 3.625 C8.96109375 3.74101562 8.1721875 3.85703125 7.359375 3.9765625 C4.6393221 4.00358289 3.26514161 3.47334432 1 2 C0.67 1.34 0.34 0.68 0 0 Z " fill="#F5FBFD" transform="translate(120,259)"/>
<path d="M0 0 C-0.33 1.65 -0.66 3.3 -1 5 C0.32 5.99 1.64 6.98 3 8 C0.75 8.75 0.75 8.75 -2 9 C-4.375 7.3125 -4.375 7.3125 -6 5 C-5.9375 2.8125 -5.9375 2.8125 -5 1 C-2 0 -2 0 0 0 Z " fill="#394C5C" transform="translate(143,252)"/>
<path d="M0 0 C3.96 0 7.92 0 12 0 C12.33 0.99 12.66 1.98 13 3 C8.71 3 4.42 3 0 3 C0 2.01 0 1.02 0 0 Z " fill="#30414F" transform="translate(129,262)"/>
<path d="M0 0 C0.66 0.33 1.32 0.66 2 1 C2 1.99 2 2.98 2 4 C4.475 4.99 4.475 4.99 7 6 C6.67 7.98 6.34 9.96 6 12 C5.34 12 4.68 12 4 12 C2.78125 10.28515625 2.78125 10.28515625 1.5 8.0625 C-0.18454879 4.94567974 -0.18454879 4.94567974 -3 3 C-3 2.34 -3 1.68 -3 1 C-2.01 0.67 -1.02 0.34 0 0 Z " fill="#CADEEB" transform="translate(384,250)"/>
<path d="M0 0 C0.99 0.33 1.98 0.66 3 1 C3.36 6.4 3.36 6.4 1.875 8.875 C-0.78034983 10.4682099 -2.96789518 10.20214032 -6 10 C-5.67 9.34 -5.34 8.68 -5 8 C-3.35 8 -1.7 8 0 8 C0 5.36 0 2.72 0 0 Z " fill="#233F55" transform="translate(137,233)"/>
<path d="M0 0 C1.98 0.99 1.98 0.99 4 2 C3.67 2.99 3.34 3.98 3 5 C3.99 5 4.98 5 6 5 C6 6.32 6 7.64 6 9 C4.68 9 3.36 9 2 9 C1.67 9.99 1.34 10.98 1 12 C1.01740234 11.07767578 1.01740234 11.07767578 1.03515625 10.13671875 C1.04417969 9.32847656 1.05320313 8.52023438 1.0625 7.6875 C1.07410156 6.88699219 1.08570313 6.08648437 1.09765625 5.26171875 C1.09657855 2.83138666 1.09657855 2.83138666 0 0 Z " fill="#1C354A" transform="translate(142,229)"/>
<path d="M0 0 C0.66 0 1.32 0 2 0 C2 0.99 2 1.98 2 3 C2.5775 2.79375 3.155 2.5875 3.75 2.375 C6.51967567 1.91338739 7.64561267 2.57055055 10 4 C6.12315913 5.19287411 3.08378077 6 -1 6 C-1.042721 4.33388095 -1.04063832 2.66617115 -1 1 C-0.67 0.67 -0.34 0.34 0 0 Z " fill="#B9D6E5" transform="translate(156,270)"/>
<path d="M0 0 C3 3.75 3 3.75 3 6 C5.64 5.34 8.28 4.68 11 4 C11 4.99 11 5.98 11 7 C7.37 7.33 3.74 7.66 0 8 C0 5.36 0 2.72 0 0 Z " fill="#456172" transform="translate(152,270)"/>
<path d="M0 0 C2.35953094 2.35953094 2.49141413 3.77895617 3 7 C1.68 6.67 0.36 6.34 -1 6 C-1 7.32 -1 8.64 -1 10 C-1.99 9.67 -2.98 9.34 -4 9 C-4 5 -4 5 -2.5625 3.375 C-2.046875 2.92125 -1.53125 2.4675 -1 2 C-0.67 1.34 -0.34 0.68 0 0 Z " fill="#93A8B3" transform="translate(177,228)"/>
<path d="M0 0 C0.89847656 0.07863281 1.79695313 0.15726562 2.72265625 0.23828125 C3.81900391 0.46064453 3.81900391 0.46064453 4.9375 0.6875 C5.2675 1.3475 5.5975 2.0075 5.9375 2.6875 C2.95253209 3.63146421 0.06570109 4.43982831 -3.0625 4.6875 C-5.625 2.8125 -5.625 2.8125 -7.0625 0.6875 C-4.47149174 -0.60800413 -2.86825631 -0.27650816 0 0 Z " fill="#F8FBFD" transform="translate(119.0625,265.3125)"/>
<path d="M0 0 C3.94120709 0.56302958 6.7508723 1.6791945 10 4 C10 4.66 10 5.32 10 6 C6.44219804 5.39009109 3.3171411 4.4216319 0 3 C0 2.01 0 1.02 0 0 Z " fill="#2A3B49" transform="translate(143,252)"/>
<path d="M0 0 C2 3 2 3 3 6 C2.67 6.99 2.34 7.98 2 9 C0.68 9 -0.64 9 -2 9 C-2.93423645 5.98968256 -3.04449911 5.13349732 -2 2 C-1.34 2 -0.68 2 0 2 C0 1.34 0 0.68 0 0 Z " fill="#314A5D" transform="translate(123,236)"/>
<path d="M0 0 C0.66 0.33 1.32 0.66 2 1 C0.68 3.64 -0.64 6.28 -2 9 C-3.32 9 -4.64 9 -6 9 C-6 7.68 -6 6.36 -6 5 C-5.01 5 -4.02 5 -3 5 C-3 4.34 -3 3.68 -3 3 C-2.34 3 -1.68 3 -1 3 C-0.67 2.01 -0.34 1.02 0 0 Z " fill="#1C3443" transform="translate(125,229)"/>
<path d="M0 0 C-0.99 0.66 -1.98 1.32 -3 2 C-4.68711423 3.6459651 -6.3545622 5.31237149 -8 7 C-8.66 7.66 -9.32 8.32 -10 9 C-10.25 6.1875 -10.25 6.1875 -10 3 C-7.05843777 -0.39411027 -4.30855278 -0.29376496 0 0 Z " fill="#D8E7EC" transform="translate(135,228)"/>
<path d="M0 0 C0 0.66 0 1.32 0 2 C-5.445 3.485 -5.445 3.485 -11 5 C-11 4.01 -11 3.02 -11 2 C-7.17679443 0.57741188 -4.08718695 -0.24042276 0 0 Z " fill="#425966" transform="translate(127,201)"/>
<path d="M0 0 C6.75 0.75 6.75 0.75 9 3 C8.34 3 7.68 3 7 3 C6.34 4.65 5.68 6.3 5 8 C4.01 7.67 3.02 7.34 2 7 C2.66 6.67 3.32 6.34 4 6 C3.67 4.35 3.34 2.7 3 1 C2.01 0.67 1.02 0.34 0 0 Z " fill="#294357" transform="translate(424,217)"/>
<path d="M0 0 C4.71403788 0.47939368 8.66579301 0.96834048 13 3 C13 3.66 13 4.32 13 5 C11.58318366 4.68817931 10.16655349 4.37551263 8.75 4.0625 C7.96109375 3.88847656 7.1721875 3.71445313 6.359375 3.53515625 C4.23121297 3.052444 2.11467158 2.53836822 0 2 C0 1.34 0 0.68 0 0 Z " fill="#2F4753" transform="translate(140,201)"/>
<path d="M0 0 C0.89203125 0.01804687 1.7840625 0.03609375 2.703125 0.0546875 C3.71632812 0.08949219 3.71632812 0.08949219 4.75 0.125 C4.75 0.785 4.75 1.445 4.75 2.125 C3.82767578 2.21587891 3.82767578 2.21587891 2.88671875 2.30859375 C2.07847656 2.39238281 1.27023438 2.47617187 0.4375 2.5625 C-0.36300781 2.64371094 -1.16351563 2.72492188 -1.98828125 2.80859375 C-4.41087179 3.07765693 -4.41087179 3.07765693 -7.25 4.125 C-7.91 3.465 -8.57 2.805 -9.25 2.125 C-6.03817851 0.21891902 -3.71117397 -0.09766247 0 0 Z " fill="#5D7A96" transform="translate(159.25,283.875)"/>
<path d="M0 0 C1.65 0.33 3.3 0.66 5 1 C4.67 2.65 4.34 4.3 4 6 C3.34 5.34 2.68 4.68 2 4 C1.01 4.495 1.01 4.495 0 5 C-1.99960012 5.039992 -4.00047242 5.04346799 -6 5 C-6 4.67 -6 4.34 -6 4 C-4.35 4 -2.7 4 -1 4 C-0.67 2.68 -0.34 1.36 0 0 Z " fill="#E0ECF2" transform="translate(116,237)"/>
<path d="M0 0 C0.66 0 1.32 0 2 0 C1.67 2.97 1.34 5.94 1 9 C0.67 8.34 0.34 7.68 0 7 C-0.66 7 -1.32 7 -2 7 C-2 6.34 -2 5.68 -2 5 C-3.65 5 -5.3 5 -7 5 C-7 4.67 -7 4.34 -7 4 C-5.824375 3.8453125 -5.824375 3.8453125 -4.625 3.6875 C-1.66954819 3.22404978 -1.66954819 3.22404978 0 0 Z " fill="#30485C" transform="translate(115,230)"/>
<path d="M0 0 C2.97 0.495 2.97 0.495 6 1 C6 2.32 6 3.64 6 5 C3.36 5 0.72 5 -2 5 C-1.34 4.34 -0.68 3.68 0 3 C0 2.01 0 1.02 0 0 Z " fill="#5B8098" transform="translate(104,216)"/>
<path d="M0 0 C1.5625 1.25 1.5625 1.25 3 3 C2.6875 5.1875 2.6875 5.1875 2 7 C0.0625 6.6875 0.0625 6.6875 -2 6 C-2.33 5.01 -2.66 4.02 -3 3 C-2.01 2.01 -1.02 1.02 0 0 Z " fill="#324A5D" transform="translate(144,238)"/>
<path d="M0 0 C0.33 0.66 0.66 1.32 1 2 C0.67 2.66 0.34 3.32 0 4 C0.99 4 1.98 4 3 4 C3.33 3.34 3.66 2.68 4 2 C4 2.99 4 3.98 4 5 C3.01 5 2.02 5 1 5 C0.67 6.32 0.34 7.64 0 9 C-0.66 8.67 -1.32 8.34 -2 8 C-1.125 1.125 -1.125 1.125 0 0 Z " fill="#BFD3DF" transform="translate(118,229)"/>
<path d="M0 0 C-1.77489599 2.24197388 -2.62175489 2.94326323 -5.5 3.375 C-8.43002329 2.93549651 -9.06371822 2.12765846 -11 0 C-9.54263913 -0.19491452 -8.08405407 -0.38069358 -6.625 -0.5625 C-5.81289062 -0.66691406 -5.00078125 -0.77132812 -4.1640625 -0.87890625 C-2 -1 -2 -1 0 0 Z " fill="#547892" transform="translate(166,217)"/>
<path d="M0 0 C2.31 0 4.62 0 7 0 C7.33 0.99 7.66 1.98 8 3 C5.36 3 2.72 3 0 3 C0 2.01 0 1.02 0 0 Z " fill="#3E4D58" transform="translate(118,262)"/>
<path d="M0 0 C1.2065625 0.0309375 1.2065625 0.0309375 2.4375 0.0625 C2.7675 1.0525 3.0975 2.0425 3.4375 3.0625 C0.7975 3.7225 -1.8425 4.3825 -4.5625 5.0625 C-3.31710123 0.08090491 -3.31710123 0.08090491 0 0 Z " fill="#E6EEF2" transform="translate(133.5625,232.9375)"/>
<path d="M0 0 C0.33 0.66 0.66 1.32 1 2 C1.99 2.33 2.98 2.66 4 3 C3.360625 3.12375 2.72125 3.2475 2.0625 3.375 C1.381875 3.58125 0.70125 3.7875 0 4 C-0.33 4.66 -0.66 5.32 -1 6 C-2.32 5.67 -3.64 5.34 -5 5 C-4.1875 3.0625 -4.1875 3.0625 -3 1 C-2.01 0.67 -1.02 0.34 0 0 Z " fill="#364B5A" transform="translate(125,226)"/>
<path d="M0 0 C2.4375 0.375 2.4375 0.375 5 1 C5.33 1.66 5.66 2.32 6 3 C5.34 3 4.68 3 4 3 C3.67 3.66 3.34 4.32 3 5 C1.35 4.67 -0.3 4.34 -2 4 C-1.34 2.68 -0.68 1.36 0 0 Z " fill="#D0E2ED" transform="translate(426,225)"/>
<path d="M0 0 C1.32 0.33 2.64 0.66 4 1 C3.67 2.32 3.34 3.64 3 5 C0.03 4.505 0.03 4.505 -3 4 C-2.34 3.67 -1.68 3.34 -1 3 C-0.67 2.01 -0.34 1.02 0 0 Z " fill="#3B5269" transform="translate(132,221)"/>
<path d="M0 0 C1.32 0.66 2.64 1.32 4 2 C2.35 3.65 0.7 5.3 -1 7 C-1.66 6.67 -2.32 6.34 -3 6 C-2.01 4.02 -1.02 2.04 0 0 Z " fill="#A8BBC4" transform="translate(173,276)"/>
<path d="M0 0 C1.65 0.33 3.3 0.66 5 1 C5.33 2.65 5.66 4.3 6 6 C3.69 5.01 1.38 4.02 -1 3 C-0.67 2.01 -0.34 1.02 0 0 Z " fill="#A1B3BD" transform="translate(120,209)"/>
<path d="M0 0 C0.66 0 1.32 0 2 0 C2.25 2.8125 2.25 2.8125 2 6 C0 7.875 0 7.875 -2 9 C-1.41196203 5.97580475 -0.77321882 2.98241547 0 0 Z " fill="#284458" transform="translate(166,213)"/>
<path d="M0 0 C0.66 0 1.32 0 2 0 C2 0.66 2 1.32 2 2 C2.639375 2.12375 3.27875 2.2475 3.9375 2.375 C4.618125 2.58125 5.29875 2.7875 6 3 C6.33 3.66 6.66 4.32 7 5 C4.69 5 2.38 5 0 5 C0 4.34 0 3.68 0 3 C-0.66 2.67 -1.32 2.34 -2 2 C-1.34 1.34 -0.68 0.68 0 0 Z " fill="#4A6272" transform="translate(155,208)"/>
<path d="M0 0 C0.66 0 1.32 0 2 0 C2.33 1.32 2.66 2.64 3 4 C1.68 4 0.36 4 -1 4 C-1.33 4.66 -1.66 5.32 -2 6 C-2 5.34 -2 4.68 -2 4 C-3.32 4.33 -4.64 4.66 -6 5 C-6 4.34 -6 3.68 -6 3 C-4.02 2.67 -2.04 2.34 0 2 C0 1.34 0 0.68 0 0 Z " fill="#B9D0DC" transform="translate(127,201)"/>
<path d="M0 0 C0.66 0 1.32 0 2 0 C1.67 2.64 1.34 5.28 1 8 C0.01 8 -0.98 8 -2 8 C-1.34 5.36 -0.68 2.72 0 0 Z " fill="#3D5360" transform="translate(181,258)"/>
<path d="M0 0 C2.475 0.495 2.475 0.495 5 1 C4.67 2.32 4.34 3.64 4 5 C2.68 4.67 1.36 4.34 0 4 C0 2.68 0 1.36 0 0 Z " fill="#425064" transform="translate(131,247)"/>
<path d="M0 0 C1.52519276 0.08937803 3.04681929 0.24537146 4.5625 0.4375 C5.80193359 0.59025391 5.80193359 0.59025391 7.06640625 0.74609375 C7.70449219 0.82988281 8.34257812 0.91367188 9 1 C9 1.66 9 2.32 9 3 C6.69 3.66 4.38 4.32 2 5 C1.01 3.68 0.02 2.36 -1 1 C-0.67 0.67 -0.34 0.34 0 0 Z " fill="#354C61" transform="translate(128,238)"/>
<path d="M0 0 C1.485 0.99 1.485 0.99 3 2 C3.6875 5.625 3.6875 5.625 4 9 C3.01 8.67 2.02 8.34 1 8 C-0.35439668 5.29120665 -0.06501451 2.99066732 0 0 Z " fill="#9EBBCF" transform="translate(124,233)"/>
<path d="M0 0 C1.125 1.625 1.125 1.625 2 4 C1.125 7.25 1.125 7.25 0 10 C-0.66 10 -1.32 10 -2 10 C-1.54177532 6.53058454 -1.10868317 3.32604951 0 0 Z " fill="#3E5766" transform="translate(86,229)"/>
<path d="M0 0 C2.75 -0.25 2.75 -0.25 6 0 C8.375 2 8.375 2 10 4 C8.72125 3.896875 7.4425 3.79375 6.125 3.6875 C5.04605469 3.60048828 5.04605469 3.60048828 3.9453125 3.51171875 C2 3 2 3 0 0 Z " fill="#A3C5D3" transform="translate(130,227)"/>
<path d="M0 0 C0 3.11227195 -0.45627049 5.94152152 -1 9 C-2.74627478 6.38058783 -3.38722388 4.96175123 -4 2 C-2.68 1.34 -1.36 0.68 0 0 Z " fill="#203F52" transform="translate(114,214)"/>
<path d="M0 0 C-3 2 -3 2 -5 2 C-5 2.99 -5 3.98 -5 5 C-5.66 5 -6.32 5 -7 5 C-7.33 3.68 -7.66 2.36 -8 1 C-4.93251126 -0.86240388 -3.40254489 -1.2151946 0 0 Z " fill="#C6DBE3" transform="translate(136,213)"/>
<path d="M0 0 C1.2065625 0.0309375 1.2065625 0.0309375 2.4375 0.0625 C2.7675 1.7125 3.0975 3.3625 3.4375 5.0625 C2.7775 5.0625 2.1175 5.0625 1.4375 5.0625 C1.1075 4.4025 0.7775 3.7425 0.4375 3.0625 C-1.57919827 1.92899466 -1.57919827 1.92899466 -3.5625 1.0625 C-2.5625 0.0625 -2.5625 0.0625 0 0 Z " fill="#E6F4F8" transform="translate(109.5625,208.9375)"/>
<path d="M0 0 C1.98 0 3.96 0 6 0 C4.02 0.99 4.02 0.99 2 2 C2.99 2.66 3.98 3.32 5 4 C2.69 4 0.38 4 -2 4 C-1.34 2.68 -0.68 1.36 0 0 Z " fill="#C1CFD5" transform="translate(105,208)"/>
<path d="M0 0 C1.32 0.33 2.64 0.66 4 1 C4.33 3.64 4.66 6.28 5 9 C4.01 9 3.02 9 2 9 C2.33 7.02 2.66 5.04 3 3 C2.01 2.67 1.02 2.34 0 2 C0 1.34 0 0.68 0 0 Z " fill="#304A58" transform="translate(126,205)"/>
<path d="M0 0 C2.88575819 0.39803561 3.82189513 0.79009069 5.75 3.0625 C6.1625 3.701875 6.575 4.34125 7 5 C4.625 4.75 4.625 4.75 2 4 C0.6875 1.9375 0.6875 1.9375 0 0 Z " fill="#324A5E" transform="translate(165,280)"/>
<path d="M0 0 C2.62187494 1.04874998 3.79371361 1.64931313 5.25 4.125 C5.4975 4.74375 5.745 5.3625 6 6 C3.11562221 4.70700306 1.12780579 3.34058637 -1 1 C-0.67 0.67 -0.34 0.34 0 0 Z " fill="#3E525F" transform="translate(172,267)"/>
<path d="M0 0 C2.475 0.495 2.475 0.495 5 1 C5 1.99 5 2.98 5 4 C3.35 3.67 1.7 3.34 0 3 C0 2.01 0 1.02 0 0 Z " fill="#C8E0EC" transform="translate(158,264)"/>
<path d="M0 0 C0.66 0 1.32 0 2 0 C2.33 2.64 2.66 5.28 3 8 C2.34 8 1.68 8 1 8 C0.67 5.36 0.34 2.72 0 0 Z " fill="#3A4E59" transform="translate(84,258)"/>
<path d="M0 0 C1.65 0 3.3 0 5 0 C5.33 0.99 5.66 1.98 6 3 C4.02 3 2.04 3 0 3 C0 2.01 0 1.02 0 0 Z " fill="#C9E2F3" transform="translate(157,282)"/>
<path d="M0 0 C1.98 0 3.96 0 6 0 C5.67 0.99 5.34 1.98 5 3 C3.35 3 1.7 3 0 3 C0 2.01 0 1.02 0 0 Z " fill="#CAE5F4" transform="translate(115,282)"/>
<path d="M0 0 C1.98 0 3.96 0 6 0 C5.67 0.99 5.34 1.98 5 3 C3.02 3 1.04 3 -1 3 C-0.67 2.01 -0.34 1.02 0 0 Z " fill="#C9E6F5" transform="translate(105,282)"/>
<path d="M0 0 C-1.04874998 2.62187494 -1.64931313 3.79371361 -4.125 5.25 C-4.74375 5.4975 -5.3625 5.745 -6 6 C-6 5.01 -6 4.02 -6 3 C-2.66666667 0 -2.66666667 0 0 0 Z " fill="#3C505C" transform="translate(95,267)"/>
<path d="" fill="#FFFFFF" transform="translate(0,0)"/>
<path d="" fill="#FFFFFF" transform="translate(0,0)"/>
<path d="" fill="#FFFFFF" transform="translate(0,0)"/>
<path d="" fill="#FFFFFF" transform="translate(0,0)"/>
<path d="" fill="#FFFFFF" transform="translate(0,0)"/>
<path d="" fill="#FFFFFF" transform="translate(0,0)"/>
<path d="" fill="#FFFFFF" transform="translate(0,0)"/>
<path d="" fill="#FFFFFF" transform="translate(0,0)"/>
<path d="" fill="#FFFFFF" transform="translate(0,0)"/>
<path d="" fill="#FFFFFF" transform="translate(0,0)"/>
<path d="" fill="#FFFFFF" transform="translate(0,0)"/>
<path d="" fill="#FFFFFF" transform="translate(0,0)"/>
<path d="" fill="#FFFFFF" transform="translate(0,0)"/>
<path d="" fill="#FFFFFF" transform="translate(0,0)"/>
<path d="" fill="#FFFFFF" transform="translate(0,0)"/>
<path d="" fill="#FFFFFF" transform="translate(0,0)"/>
<path d="" fill="#FFFEFF" transform="translate(0,0)"/>
<path d="" fill="#FFFFFF" transform="translate(0,0)"/>
<path d="" fill="#FFFFFF" transform="translate(0,0)"/>
<path d="" fill="#FFFFFF" transform="translate(0,0)"/>
<path d="" fill="#FFFFFF" transform="translate(0,0)"/>
<path d="" fill="#FFFFFF" transform="translate(0,0)"/>
<path d="" fill="#FFFFFF" transform="translate(0,0)"/>
<path d="" fill="#FFFFFF" transform="translate(0,0)"/>
<path d="" fill="#FFFFFF" transform="translate(0,0)"/>
<path d="" fill="#FFFFFF" transform="translate(0,0)"/>
<path d="" fill="#FFFFFF" transform="translate(0,0)"/>
<path d="" fill="#FFFFFF" transform="translate(0,0)"/>
<path d="" fill="#FFFFFF" transform="translate(0,0)"/>
<path d="" fill="#FFFFFF" transform="translate(0,0)"/>
<path d="" fill="#FFFFFF" transform="translate(0,0)"/>
<path d="" fill="#FFFFFF" transform="translate(0,0)"/>
<path d="" fill="#FFFFFF" transform="translate(0,0)"/>
<path d="" fill="#FFFFFF" transform="translate(0,0)"/>
<path d="" fill="#FFFFFF" transform="translate(0,0)"/>
<path d="" fill="#FFFFFF" transform="translate(0,0)"/>
<path d="" fill="#FFFFFF" transform="translate(0,0)"/>
<path d="" fill="#FFFFFF" transform="translate(0,0)"/>
<path d="" fill="#FFFFFF" transform="translate(0,0)"/>
<path d="" fill="#FFFFFF" transform="translate(0,0)"/>
<path d="" fill="#FFFFFF" transform="translate(0,0)"/>
<path d="" fill="#FFFFFF" transform="translate(0,0)"/>
<path d="" fill="#FFFFFF" transform="translate(0,0)"/>
<path d="" fill="#FFFFFF" transform="translate(0,0)"/>
<path d="" fill="#FFFFFF" transform="translate(0,0)"/>
<path d="" fill="#FFFFFF" transform="translate(0,0)"/>
<path d="" fill="#FFFFFF" transform="translate(0,0)"/>
<path d="" fill="#FFFFFF" transform="translate(0,0)"/>
<path d="" fill="#FFFFFF" transform="translate(0,0)"/>
<path d="" fill="#FFFFFF" transform="translate(0,0)"/>
<path d="" fill="#FFFFFF" transform="translate(0,0)"/>
<path d="" fill="#FFFFFF" transform="translate(0,0)"/>
<path d="" fill="#FFFFFF" transform="translate(0,0)"/>
<path d="" fill="#FFFFFF" transform="translate(0,0)"/>
<path d="" fill="#FFFFFF" transform="translate(0,0)"/>
<path d="" fill="#FFFFFF" transform="translate(0,0)"/>
<path d="" fill="#FFFFFF" transform="translate(0,0)"/>
<path d="" fill="#FFFFFF" transform="translate(0,0)"/>
<path d="" fill="#FFFFFF" transform="translate(0,0)"/>
<path d="" fill="#FFFFFF" transform="translate(0,0)"/>
<path d="" fill="#FFFFFF" transform="translate(0,0)"/>
<path d="" fill="#FFFFFF" transform="translate(0,0)"/>
<path d="" fill="#FFFFFF" transform="translate(0,0)"/>
<path d="" fill="#FFFFFF" transform="translate(0,0)"/>
<path d="" fill="#FFFFFF" transform="translate(0,0)"/>
<path d="" fill="#FFFFFF" transform="translate(0,0)"/>
<path d="" fill="#FFFFFF" transform="translate(0,0)"/>
<path d="" fill="#FFFFFF" transform="translate(0,0)"/>
<path d="" fill="#FFFFFF" transform="translate(0,0)"/>
<path d="" fill="#FFFFFF" transform="translate(0,0)"/>
<path d="" fill="#FFFFFF" transform="translate(0,0)"/>
<path d="" fill="#FFFFFF" transform="translate(0,0)"/>
<path d="" fill="#FFFFFF" transform="translate(0,0)"/>
<path d="" fill="#FFFFFF" transform="translate(0,0)"/>
<path d="" fill="#FFFFFF" transform="translate(0,0)"/>
<path d="" fill="#FFFFFF" transform="translate(0,0)"/>
<path d="" fill="#FFFFFF" transform="translate(0,0)"/>
<path d="" fill="#FFFFFF" transform="translate(0,0)"/>
<path d="" fill="#FFFFFF" transform="translate(0,0)"/>
<path d="" fill="#FFFFFF" transform="translate(0,0)"/>
</svg>
